<svg width="32" height="32" viewBox="0 0 32 32" fill="none" xmlns="http://www.w3.org/2000/svg">
<g clip-path="url(#clip0_10_162)">
<path d="M16 32C24.837 32 32 24.837 32 16C32 7.163 24.837 0 16 0C7.163 0 0 7.163 0 16C0 24.837 7.163 32 16 32Z" fill="#F3BA2F"/>
<path d="M18.256 23.096V25.678L15.966 27L13.744 25.678V23.096L15.966 24.418L18.256 23.096ZM6 14.174L8.222 15.496V19.923L12.061 22.171V24.748L6 21.245V14.174ZM25.933 14.174V21.244L19.805 24.748V22.171L23.642 19.923V15.496L25.932 14.174H25.933ZM19.805 10.672L22.094 11.993V14.571L18.256 16.818V21.308L16.033 22.63L13.811 21.309V16.818L9.84 14.57V11.992L12.129 10.671L15.967 12.917L19.806 10.671L19.805 10.672ZM9.839 16.422L12.061 17.742V20.32L9.839 18.998V16.421V16.422ZM22.094 16.422V18.998L19.872 20.32V17.743L22.094 16.421V16.422ZM8.222 8.42702L10.515 9.74602L8.225 11.067V13.644L6.003 12.322V9.74702L8.222 8.42802V8.42702ZM23.71 8.42702L26 9.75002V12.327L23.71 13.648V11.068L21.483 9.74702L23.71 8.42802V8.42702ZM15.966 8.42702L18.256 9.74902L15.966 11.07L13.744 9.74902L15.966 8.42702ZM15.966 3.99902L22.094 7.50202L19.872 8.82402L16.033 6.57602L12.123 8.82402L9.902 7.50202L15.966 4.00002V3.99902Z" fill="white"/>
</g>
<defs>
<clipPath id="clip0_10_162">
<rect width="32" height="32" fill="white"/>
</clipPath>
</defs>
</svg>
