<svg width="35" height="34" viewBox="0 0 35 34" fill="none" xmlns="http://www.w3.org/2000/svg">
<g clip-path="url(#clip0_5099_22410)">
<path d="M34.5 17C34.5 7.61116 26.8888 0 17.5 0C8.11116 0 0.5 7.61116 0.5 17C0.5 26.3888 8.11116 34 17.5 34C26.8888 34 34.5 26.3888 34.5 17Z" fill="#8247E5"/>
<path d="M34.5 17C34.5 7.61116 26.8888 0 17.5 0C8.11116 0 0.5 7.61116 0.5 17C0.5 26.3888 8.11116 34 17.5 34C26.8888 34 34.5 26.3888 34.5 17Z" fill="url(#paint0_linear_5099_22410)"/>
<path fill-rule="evenodd" clip-rule="evenodd" d="M22.9842 8.13327C22.652 7.95558 22.248 7.95558 21.9158 8.13327L16.9658 10.7803C16.6166 10.9671 16.4 11.3213 16.4 11.7059V13.4273L18.6 14.6176V12.3289L22.45 10.2701L26.3 12.3289V16.377L22.45 18.4358L13.0842 13.4273C12.752 13.2497 12.348 13.2497 12.0158 13.4273L7.06581 16.0744C6.71658 16.2612 6.5 16.6155 6.5 17V22.2941C6.5 22.6787 6.71658 23.0329 7.06581 23.2197L12.0158 25.8667C12.348 26.0444 12.752 26.0444 13.0842 25.8667L18.0342 23.2197C18.3834 23.0329 18.6 22.6787 18.6 22.2941V20.5727L16.4 19.3824V21.6711L12.55 23.7299L8.7 21.6711V17.623L12.55 15.5642L21.9158 20.5727C22.248 20.7503 22.652 20.7503 22.9842 20.5727L27.9342 17.9256C28.2834 17.7388 28.5 17.3845 28.5 17V11.7059C28.5 11.3213 28.2834 10.9671 27.9342 10.7803L22.9842 8.13327Z" fill="white"/>
</g>
<defs>
<linearGradient id="paint0_linear_5099_22410" x1="-5.71344" y1="2.79444" x2="29.3861" y2="24.2737" gradientUnits="userSpaceOnUse">
<stop stop-color="#A229C5"/>
<stop offset="1" stop-color="#7B3FE4"/>
</linearGradient>
<clipPath id="clip0_5099_22410">
<rect width="34" height="34" fill="white" transform="translate(0.5)"/>
</clipPath>
</defs>
</svg>
