<svg width="152" height="45" viewBox="0 0 152 45" fill="none" xmlns="http://www.w3.org/2000/svg">
<path d="M58.037 14.1185C52.869 1.83368 43.3618 0.0468285 31.9011 0.0350883C27.7968 0.0350883 25.1764 -0.0564783 22.5654 0.0562269C17.7613 0.262853 14.8686 2.85507 14.8639 7.64034C14.8615 12.4397 17.8059 15.0625 22.5771 15.2198C27.4446 15.3794 32.3261 15.1282 37.1936 15.2926C41.676 15.4428 44.3809 17.9857 44.402 22.454C44.4255 26.9834 41.7065 29.5427 37.1724 29.693C32.2322 29.8574 27.2779 29.5686 22.34 29.7822C17.6111 29.9888 14.7911 32.7243 14.8592 37.465C14.9249 42.1516 17.7966 44.7603 22.4762 44.9152C27.4164 45.0796 32.3637 44.9552 37.3086 44.9505C53.1813 44.9293 64.1935 28.7491 58.037 14.1185Z" fill="white"/>
<path d="M7.61784 15.0202C2.58132 15.0202 0.0571953 17.6312 0.000842714 22.3671C-0.0555099 27.0585 2.71752 29.9325 7.376 30.017C12.0908 30.1039 14.9906 27.2933 15.0634 22.562C15.1315 17.8542 12.4712 15.0202 7.61784 15.0202Z" fill="white"/>
<path d="M78.3287 7.87276C77.2275 7.34681 75.9525 7.08383 74.5038 7.08383H68.0984V20.0802H74.5038C75.9525 20.0802 77.2275 19.8172 78.3287 19.2912C79.4299 18.7653 80.2893 18.0162 80.9092 17.0442C81.5291 16.0721 81.8367 14.9121 81.8367 13.562C81.8367 12.226 81.5267 11.0731 80.9092 10.1081C80.2917 9.1454 79.4299 8.39872 78.3287 7.87276ZM77.0302 15.262C76.7696 15.7269 76.408 16.0768 75.9431 16.3116C75.4782 16.5464 74.9382 16.6638 74.3183 16.6638H72.4798V10.5002H74.3183C74.9382 10.5002 75.4782 10.6176 75.9431 10.8524C76.408 11.0872 76.7696 11.4347 77.0302 11.8926C77.2909 12.3504 77.42 12.9069 77.42 13.5644C77.42 14.2312 77.2885 14.7971 77.0302 15.262Z" fill="white"/>
<path d="M95.535 10.1104C94.9151 9.14539 94.0558 8.39872 92.9545 7.87276C91.8533 7.34681 90.5783 7.08383 89.1296 7.08383H82.7242V20.0802H89.1296C90.5783 20.0802 91.8533 19.8172 92.9545 19.2912C94.0558 18.7653 94.9151 18.0162 95.535 17.0442C96.1549 16.0721 96.4625 14.9121 96.4625 13.562C96.4625 12.226 96.1525 11.0755 95.535 10.1104ZM91.6537 15.262C91.3931 15.7269 91.0315 16.0768 90.5666 16.3116C90.1017 16.5464 89.5616 16.6638 88.9417 16.6638H87.1033V10.5002H88.9417C89.5616 10.5002 90.1017 10.6176 90.5666 10.8524C91.0315 11.0872 91.3931 11.4347 91.6537 11.8926C91.9144 12.3504 92.0435 12.9069 92.0435 13.5644C92.0435 14.2312 91.9144 14.7971 91.6537 15.262Z" fill="white"/>
<path d="M100.926 17.8143H105.869L106.74 20.0802H111.269L105.587 7.08383H101.281L95.5984 20.0802H100.055L100.926 17.8143ZM103.396 11.3854L104.655 14.6586H102.138L103.396 11.3854Z" fill="white"/>
<path d="M124.514 16.2929C124.878 15.464 125.061 14.56 125.061 13.5832C125.061 12.5924 124.878 11.686 124.514 10.8642C124.15 10.0401 123.639 9.32392 122.983 8.71109C122.328 8.09825 121.554 7.62396 120.664 7.29054C119.774 6.95712 118.795 6.79041 117.731 6.79041C116.679 6.79041 115.705 6.95712 114.808 7.29054C113.911 7.62396 113.133 8.09825 112.478 8.71109C111.823 9.32392 111.311 10.0424 110.947 10.8642C110.581 11.6884 110.4 12.5947 110.4 13.5832C110.4 14.5624 110.584 15.464 110.947 16.2929C111.311 17.1217 111.823 17.8426 112.478 18.4554C113.133 19.0682 113.911 19.5425 114.808 19.876C115.705 20.2094 116.679 20.3761 117.731 20.3761C118.795 20.3761 119.774 20.2094 120.664 19.876C121.556 19.5425 122.328 19.0682 122.983 18.4554C123.639 17.8426 124.148 17.1217 124.514 16.2929ZM120.419 14.9474C120.271 15.349 120.063 15.6894 119.797 15.9688C119.532 16.2482 119.222 16.4619 118.87 16.6098C118.518 16.7578 118.137 16.8329 117.729 16.8329C117.32 16.8329 116.94 16.7578 116.587 16.6098C116.235 16.4619 115.925 16.2482 115.66 15.9688C115.395 15.6894 115.186 15.349 115.038 14.9474C114.89 14.5459 114.815 14.0904 114.815 13.5832C114.815 13.0761 114.89 12.6206 115.038 12.219C115.186 11.8175 115.392 11.4771 115.66 11.1976C115.925 10.9182 116.235 10.7046 116.587 10.5566C116.94 10.4087 117.32 10.3336 117.729 10.3336C118.137 10.3336 118.518 10.4087 118.87 10.5566C119.222 10.7046 119.532 10.9182 119.797 11.1976C120.063 11.4771 120.271 11.8175 120.419 12.219C120.567 12.6206 120.642 13.0761 120.642 13.5832C120.642 14.0904 120.567 14.5436 120.419 14.9474Z" fill="white"/>
<path d="M77.9413 31.3789H68.4717V25.159H68.1007V38.1553H68.4717V31.7311H77.9413V38.1553H78.3123V25.159H77.9413V31.3789Z" fill="white"/>
<path d="M91.7477 32.6961C91.7477 34.4289 91.3415 35.7227 90.5314 36.5774C89.7214 37.4321 88.5779 37.8594 87.1057 37.8594C85.6335 37.8594 84.49 37.4321 83.6799 36.5774C82.8698 35.7227 82.4636 34.4289 82.4636 32.6961V25.159H82.0926V32.7149C82.0926 34.5464 82.5411 35.9199 83.438 36.8357C84.335 37.7514 85.5583 38.2093 87.1057 38.2093C88.653 38.2093 89.874 37.7514 90.7733 36.8357C91.6702 35.9199 92.1187 34.5464 92.1187 32.7149V25.159H91.7477V32.6961Z" fill="white"/>
<path d="M105.749 37.4649L96.2254 25.159H95.9084V38.1553H96.2817V25.8493L105.805 38.1553H106.12V25.159H105.749V37.4649Z" fill="white"/>
<path d="M108.064 25.5112H112.892V38.1553H113.263V25.5112H118.09V25.159H108.064V25.5112Z" fill="white"/>
<path d="M120.405 31.7311H127.572V31.3789H120.405V25.5112H128.407V25.159H120.034V38.1553H128.684V37.8031H120.405V31.7311Z" fill="white"/>
<path d="M138.321 33.1892C139.082 32.8487 139.666 32.3603 140.075 31.7217C140.483 31.0854 140.688 30.3199 140.688 29.4277C140.688 28.5237 140.483 27.7559 140.075 27.1266C139.666 26.495 139.082 26.0089 138.321 25.6685C137.56 25.328 136.647 25.159 135.583 25.159H131.183V38.1553H131.554V33.6987H135.583C136.13 33.6987 136.635 33.6541 137.102 33.5625L140.411 38.1529H140.875L137.501 33.471C137.79 33.3958 138.065 33.3019 138.321 33.1892ZM135.621 33.3465H131.554V25.5112H135.621C137.142 25.5112 138.307 25.8516 139.112 26.5325C139.917 27.2135 140.319 28.1785 140.319 29.4277C140.319 30.6651 139.917 31.6278 139.112 32.3157C138.304 33.0014 137.142 33.3465 135.621 33.3465Z" fill="white"/>
<path d="M150.92 33.3465C150.624 32.938 150.228 32.6139 149.732 32.3721C149.237 32.1302 148.699 31.933 148.117 31.778C147.534 31.6231 146.95 31.4751 146.363 31.3319C145.776 31.1887 145.233 31.0102 144.738 30.7942C144.242 30.5782 143.848 30.28 143.55 29.9043C143.254 29.5263 143.104 29.0215 143.104 28.3922C143.104 27.8474 143.247 27.3567 143.531 26.9153C143.815 26.4762 144.254 26.124 144.848 25.8563C145.442 25.591 146.191 25.4572 147.095 25.4572C147.678 25.4572 148.283 25.5511 148.915 25.7366C149.547 25.9221 150.122 26.2062 150.641 26.5913L150.845 26.2931C150.376 25.9338 149.803 25.6473 149.129 25.429C148.455 25.213 147.769 25.1049 147.077 25.1049C146.062 25.1049 145.236 25.2599 144.597 25.5699C143.958 25.8798 143.489 26.2813 143.186 26.7767C142.883 27.2722 142.73 27.8052 142.73 28.3734C142.73 29.0543 142.878 29.6061 143.176 30.0264C143.472 30.4467 143.869 30.7778 144.365 31.0196C144.86 31.2615 145.4 31.4564 145.989 31.6043C146.576 31.7522 147.161 31.8978 147.743 32.041C148.326 32.1843 148.863 32.3627 149.359 32.5787C149.854 32.7947 150.251 33.0929 150.547 33.471C150.845 33.849 150.993 34.3468 150.993 34.9643C150.993 35.4973 150.847 35.9834 150.556 36.4224C150.265 36.8615 149.819 37.2114 149.22 37.472C148.619 37.7326 147.849 37.8618 146.91 37.8618C146.006 37.8618 145.168 37.6951 144.395 37.3593C143.623 37.0259 143.031 36.6173 142.622 36.1336L142.362 36.3755C142.794 36.9085 143.43 37.3476 144.264 37.6927C145.099 38.0402 145.987 38.2116 146.929 38.2116C147.957 38.2116 148.798 38.0614 149.453 37.7561C150.108 37.4532 150.592 37.0541 150.901 36.5586C151.211 36.0632 151.366 35.5302 151.366 34.962C151.364 34.2928 151.216 33.7551 150.92 33.3465Z" fill="white"/>
</svg>
