<svg width="47" height="35" viewBox="0 0 47 35" fill="none" xmlns="http://www.w3.org/2000/svg">
<path d="M45.14 10.9811C41.1204 1.42619 33.726 0.0364221 24.8121 0.0272909C21.6198 0.0272909 19.5817 -0.0439276 17.5509 0.043732C13.8144 0.204441 11.5645 2.22061 11.5609 5.94249C11.559 9.67533 13.8491 11.7152 17.5601 11.8376C21.3459 11.9618 25.1426 11.7664 28.9284 11.8942C32.4147 12.0111 34.5186 13.9889 34.535 17.4642C34.5532 20.9871 32.4385 22.9777 28.912 23.0946C25.0696 23.2224 21.2162 22.9978 17.3756 23.164C13.6976 23.3247 11.5043 25.4522 11.5572 29.1394C11.6083 32.7846 13.8418 34.8135 17.4815 34.9341C21.324 35.0619 25.1718 34.9651 29.0179 34.9615C41.3633 34.945 49.9284 22.3604 45.14 10.9811Z" fill="white"/>
<path d="M5.92498 11.6823C2.0077 11.6823 0.0444852 13.7131 0.000655444 17.3967C-0.0431744 21.0455 2.11362 23.2808 5.73689 23.3466C9.40398 23.4141 11.6594 21.2281 11.716 17.5482C11.769 13.8866 9.69983 11.6823 5.92498 11.6823Z" fill="white"/>
</svg>
