<svg width="46" height="35" viewBox="0 0 46 35" fill="none" xmlns="http://www.w3.org/2000/svg">
<g clip-path="url(#clip0_57_79)">
<path d="M44.365 9.73759C40.7678 1.26499 34.1502 0.0322142 26.1715 0.0244364C23.3197 0.0244364 21.4906 -0.039082 19.6732 0.0386957C16.3339 0.181288 14.3156 1.96888 14.3117 5.26925C14.3078 8.56962 16.3599 10.3883 19.681 10.4998C23.0695 10.61 26.4671 10.4363 29.8556 10.5504C32.9758 10.6541 34.8593 12.408 34.8736 15.4893C34.8904 18.6133 32.9978 20.3789 29.8413 20.4826C26.4023 20.5954 22.9528 20.397 19.5163 20.5435C16.2237 20.6861 14.2612 22.5735 14.3078 25.8428C14.3545 29.0757 16.3534 30.875 19.611 30.9813C23.05 31.0954 26.4943 31.0098 29.936 31.0059C40.9843 30.9891 48.6506 19.8331 44.365 9.73759Z" fill="white"/>
<path d="M9.26649 10.3598C5.76649 10.3598 4.00223 12.1604 3.96335 15.427C3.92446 18.6678 5.85464 20.6446 9.09797 20.703C12.3802 20.7639 14.3985 18.8246 14.4491 15.5618C14.4996 12.2991 12.6446 10.3598 9.26649 10.3598Z" fill="white"/>
<path d="M21.5709 33.1383C20.2085 33.1383 18.8396 33.1241 17.4824 33.08C14.112 32.9698 12.1676 31.0733 12.117 27.8767C12.0704 24.6152 13.9902 22.6591 17.3865 22.5126C19.2013 22.4348 21.0369 22.453 22.818 22.4711C24.4228 22.488 26.0833 22.5048 27.7128 22.4504C30.8874 22.3467 32.6983 20.55 32.6828 17.5244C32.6685 14.53 30.868 12.7541 27.727 12.6491C26.025 12.592 24.2919 12.6076 22.6144 12.6231C20.937 12.6387 19.2441 12.6543 17.5589 12.5985C14.1056 12.4857 12.1248 10.5568 12.1274 7.30703C12.13 4.05722 14.0563 2.15944 17.5498 2.01037C18.7554 1.95981 19.9532 1.96889 21.4698 1.98315C22.2282 1.98315 23.0863 1.99611 24.052 1.99611C32.7683 2.00518 38.8622 3.63981 42.3052 11.7494C44.3183 16.4887 43.827 21.6959 40.9596 26.0359C39.5249 28.2099 37.5731 29.9938 35.2793 31.2277C32.9854 32.4616 30.4212 33.107 27.8165 33.1059C26.8067 33.1059 25.78 33.115 24.787 33.1228C23.7228 33.1293 22.6494 33.1383 21.5709 33.1383ZM20.4509 22.5852C19.432 22.5852 18.4067 22.5981 17.393 22.6422C14.0757 22.7861 12.2078 24.693 12.2467 27.8754C12.2907 30.993 14.2002 32.8428 17.4863 32.9504C19.9156 33.0294 22.3876 33.01 24.7793 32.9918C25.7722 32.9841 26.7989 32.975 27.81 32.975C30.3933 32.9759 32.9365 32.3359 35.2115 31.1121C37.4866 29.8884 39.4224 28.1193 40.8456 25.9633C43.6883 21.6596 44.1744 16.5004 42.1794 11.7987C38.7598 3.75907 32.7087 2.13352 24.0456 2.12444C23.0798 2.12444 22.2204 2.11666 21.462 2.11018C19.948 2.09852 18.7515 2.08815 17.5498 2.1387C14.1302 2.28518 12.2532 4.11944 12.2506 7.30574C12.248 10.492 14.1833 12.3613 17.5563 12.4676C19.2415 12.5233 20.9552 12.5078 22.6119 12.4922C24.2906 12.4767 26.025 12.4611 27.7309 12.5181C30.9444 12.6257 32.7969 14.4496 32.8111 17.5218C32.8267 20.633 30.9704 22.4737 27.7154 22.5774C26.0833 22.6318 24.4215 22.615 22.8154 22.5981C22.0376 22.593 21.2456 22.5852 20.4509 22.5852Z" fill="white"/>
<path d="M7.11592 22.8056H6.96944C3.67555 22.7459 1.7324 20.7496 1.77258 17.4635C1.81277 14.1061 3.66907 12.3315 7.13925 12.3315C8.82444 12.3315 10.1454 12.8033 11.0605 13.7315C11.9524 14.6389 12.4113 15.9754 12.388 17.5996C12.3646 19.2239 11.8526 20.5448 10.9128 21.4535C9.99629 22.3389 8.68573 22.8056 7.11592 22.8056ZM7.13925 12.4598C3.75203 12.4598 1.9411 14.1904 1.90221 17.4635C1.86332 20.6693 3.75851 22.6163 6.97203 22.6746C8.57295 22.7031 9.90295 22.2481 10.8233 21.3589C11.7437 20.4696 12.2337 19.1746 12.2583 17.5996C12.283 16.0246 11.8357 14.7063 10.962 13.8261C10.078 12.9187 8.78944 12.4598 7.13925 12.4598Z" fill="white"/>
<path d="M19.8015 35.0504C18.4391 35.0504 17.0689 35.0374 15.7117 34.992C12.3413 34.8818 10.3969 32.9854 10.3463 29.79C10.2984 26.5272 12.2195 24.5724 15.6158 24.4246C17.4306 24.3481 19.2662 24.3663 21.0486 24.3844C22.6534 24.4013 24.3126 24.4168 25.9421 24.3637C29.1154 24.26 30.9276 22.4633 30.9121 19.4378C30.8978 16.4433 29.0973 14.6661 25.9563 14.5624C24.253 14.5054 22.5199 14.5209 20.8424 14.5365C19.165 14.552 17.4721 14.5663 15.7869 14.5118C12.3323 14.3991 10.3528 12.4702 10.3541 9.21906C10.3554 5.96795 12.2843 4.07277 15.7778 3.92369C16.9821 3.87184 18.1799 3.88221 19.6965 3.89517C20.4536 3.90166 21.313 3.90943 22.28 3.90943C30.9963 3.91721 37.0902 5.55314 40.5332 13.6628C42.545 18.402 42.055 23.6092 39.1876 27.948C37.7531 30.1224 35.8012 31.9067 33.507 33.1407C31.2128 34.3746 28.6482 35.0197 26.0432 35.018C25.036 35.018 24.0106 35.027 23.0189 35.0348C21.956 35.0426 20.8813 35.0504 19.8015 35.0504ZM18.6815 24.4998C17.6613 24.4998 16.636 24.5128 15.621 24.5555C12.305 24.6994 10.4358 26.6076 10.476 29.7887C10.52 32.8998 12.4295 34.7561 15.7156 34.8637C18.1462 34.9441 20.6195 34.9246 23.0124 34.9052C24.0041 34.8974 25.0295 34.8896 26.038 34.8883C28.6221 34.8895 31.1659 34.2488 33.4412 33.0238C35.7165 31.7989 37.6519 30.028 39.0736 27.8702C41.9176 23.5678 42.4037 18.4072 40.4087 13.7068C36.993 5.66202 30.938 4.04036 22.2736 4.03258C21.3078 4.03258 20.4484 4.0248 19.69 4.01832C18.176 4.00536 16.9795 3.99499 15.7778 4.04684C12.3647 4.19203 10.4824 6.02758 10.4786 9.21258C10.4747 12.3976 12.4113 14.2681 15.7856 14.3757C17.4708 14.4302 19.1832 14.4146 20.8412 14.4004C22.5199 14.3848 24.2556 14.3692 25.9602 14.4263C29.175 14.5326 31.0261 16.3565 31.0417 19.43C31.0573 22.5411 29.1997 24.3805 25.946 24.4855C24.3139 24.5387 22.6521 24.5218 21.0473 24.5063C20.2669 24.5063 19.4762 24.4998 18.6815 24.4998Z" fill="white"/>
<path d="M5.3452 24.7176H5.19872C1.90483 24.6593 -0.038316 22.6617 0.000572867 19.3756C0.0420543 16.0194 1.89705 14.2448 5.36854 14.2448C7.05372 14.2448 8.37335 14.7154 9.28854 15.6448C10.1817 16.5522 10.6406 17.8887 10.6159 19.5117C10.5913 21.1346 10.0819 22.4581 9.14205 23.3656C8.22428 24.2509 6.91372 24.7176 5.3452 24.7176ZM5.36854 14.3731C1.98131 14.3731 0.170388 16.1037 0.130202 19.3768C0.0926099 22.5813 1.98779 24.5296 5.20131 24.5867C6.80094 24.6165 8.13094 24.1615 9.05261 23.2709C9.97428 22.3804 10.4617 21.0867 10.4863 19.5117C10.5109 17.9367 10.065 16.6183 9.19002 15.7368C8.30724 14.8307 7.01872 14.3731 5.36854 14.3731Z" fill="white"/>
</g>
<defs>
<clipPath id="clip0_57_79">
<rect width="45.8889" height="35" fill="white"/>
</clipPath>
</defs>
</svg>
