<svg width="143" height="45" viewBox="0 0 143 45" fill="none" xmlns="http://www.w3.org/2000/svg">
<g clip-path="url(#clip0_57_20)">
<path d="M73.9707 13.7947C73.7446 14.2036 73.3993 14.5338 72.9807 14.7414C72.52 14.9628 72.0134 15.0719 71.5024 15.0597H69.8341V9.49975H71.5007C72.0117 9.48839 72.5181 9.59744 72.9791 9.81808C73.3962 10.0246 73.7412 10.3522 73.9691 10.7581C74.2173 11.2182 74.3397 11.7356 74.3241 12.2581C74.3427 12.7924 74.2209 13.3222 73.9707 13.7947ZM75.1557 7.12808C74.061 6.63182 72.8691 6.38694 71.6674 6.41141H65.8341V18.1447H71.6674C72.8672 18.1695 74.0573 17.9258 75.1507 17.4314C76.1113 16.9929 76.9266 16.2892 77.5007 15.4031C78.0641 14.5264 78.3463 13.4792 78.3474 12.2614C78.3485 11.0436 78.0663 10.0047 77.5007 9.14475C76.9247 8.26375 76.112 7.56304 75.1557 7.12308V7.12808Z" fill="white"/>
<path d="M87.2974 13.7947C87.0704 14.2029 86.7253 14.5329 86.3074 14.7414C85.846 14.9626 85.3389 15.0717 84.8274 15.0598H83.1524V9.49975H84.8341C85.3455 9.48863 85.8524 9.59767 86.3141 9.81808C86.7304 10.0257 87.0751 10.3531 87.3041 10.7581C87.5515 11.2184 87.6739 11.7356 87.6591 12.2581C87.6743 12.7931 87.5496 13.3227 87.2974 13.7947ZM90.8341 9.14308C90.258 8.25998 89.4423 7.55929 88.4824 7.12308C87.3892 6.62989 86.1998 6.38677 85.0007 6.41142H79.1674V18.1448H85.0007C86.201 18.1695 87.3917 17.9258 88.4857 17.4314C89.445 16.9917 90.2595 16.2882 90.8341 15.4031C91.3957 14.5264 91.6807 13.4798 91.6807 12.2614C91.709 11.1616 91.4146 10.0776 90.8341 9.14308Z" fill="white"/>
<path d="M96.8507 13.2481L98.0007 10.2948L99.1491 13.2481H96.8507ZM95.7457 16.0998H100.246L101.037 18.1448H105.167L100.001 6.41142H96.0691L90.8924 18.1448H94.9524L95.7457 16.0998Z" fill="white"/>
<path d="M113.501 13.5098C113.377 13.853 113.184 14.1669 112.932 14.4314C112.693 14.6802 112.406 14.877 112.087 15.0098C111.42 15.2765 110.675 15.2765 110.007 15.0098C109.69 14.8774 109.404 14.6805 109.167 14.4314C108.918 14.1662 108.725 13.8525 108.601 13.5098C108.327 12.7102 108.327 11.8426 108.601 11.0431C108.723 10.6996 108.916 10.3856 109.167 10.1214C109.406 9.87271 109.694 9.67585 110.012 9.5431C110.68 9.27637 111.425 9.27637 112.092 9.5431C112.411 9.67482 112.699 9.87182 112.937 10.1214C113.186 10.387 113.378 10.7007 113.501 11.0431C113.641 11.439 113.709 11.8566 113.704 12.2764C113.71 12.6964 113.642 13.1141 113.501 13.5098ZM117.231 14.7248C117.744 13.5809 117.885 12.305 117.634 11.0767C117.384 9.84839 116.754 8.72966 115.834 7.8781C115.221 7.31539 114.503 6.87977 113.721 6.59643C111.994 5.99542 110.114 5.99542 108.387 6.59643C107.602 6.8785 106.881 7.3142 106.266 7.8781C105.66 8.43976 105.177 9.12048 104.846 9.87761C104.516 10.6347 104.345 11.452 104.345 12.2781C104.345 13.1042 104.516 13.9215 104.846 14.6786C105.177 15.4357 105.66 16.1164 106.266 16.6781C106.881 17.242 107.602 17.6781 108.387 17.9614C110.114 18.5624 111.994 18.5624 113.721 17.9614C114.503 17.6773 115.221 17.2411 115.834 16.6781C116.431 16.1305 116.908 15.4655 117.236 14.7248H117.231Z" fill="white"/>
<path d="M74.6657 27.3414H66.7457V21.9447H65.8841V33.6747H66.7457V28.0947H74.6657V33.6747H75.5274V21.9447H74.6657V27.3414Z" fill="white"/>
<path d="M87.2257 28.6664C87.2257 30.1298 86.8874 31.2142 86.2107 31.9198C85.5341 32.6253 84.5813 32.977 83.3524 32.9748C82.1124 32.9748 81.1541 32.6231 80.4774 31.9198C79.8007 31.2148 79.4624 30.1331 79.4624 28.6664V21.9414H78.5991V28.6964C78.5991 30.3731 79.0218 31.6359 79.8674 32.4848C80.713 33.3336 81.8685 33.7581 83.3341 33.7581C84.8107 33.7581 85.9724 33.3336 86.8191 32.4848C87.6657 31.6359 88.0885 30.3731 88.0874 28.6964V21.9414H87.2257V28.6664Z" fill="white"/>
<path d="M99.9507 32.1281L91.8974 21.9447H91.1707V33.6747H92.0341V23.4914L100.102 33.6747H100.812V21.9447H99.9507V32.1281Z" fill="white"/>
<path d="M102.399 22.7147H106.661V33.6747H107.522V22.7147H111.786V21.9447H102.399V22.7147Z" fill="white"/>
<path d="M114.234 28.0947H120.542V27.3414H114.234V22.7147H121.287V21.9447H113.371V33.6747H121.542V32.9047H114.234V28.0947Z" fill="white"/>
<path d="M124.407 29.0831V22.7148H127.791C129.065 22.7148 130.032 22.9925 130.692 23.5481C131.349 24.0998 131.681 24.8814 131.681 25.9031C131.681 26.9248 131.347 27.6914 130.692 28.2498C130.037 28.8081 129.066 29.0831 127.791 29.0831H124.407ZM130.347 29.3581C131.015 29.0751 131.585 28.6036 131.989 28.0014C132.384 27.3723 132.584 26.6405 132.564 25.8981C132.587 25.1447 132.387 24.4013 131.989 23.7614C131.587 23.1598 131.016 22.6907 130.347 22.4131C129.538 22.0816 128.668 21.9221 127.794 21.9448H123.547V33.6781H124.412V29.8331H127.796C128.178 29.8349 128.559 29.8076 128.937 29.7514L131.771 33.6714H132.752L129.784 29.5731C129.976 29.5122 130.164 29.4404 130.347 29.3581Z" fill="white"/>
<path d="M142.036 29.1848C141.759 28.8009 141.394 28.4898 140.971 28.2781C140.511 28.0485 140.029 27.8659 139.532 27.7331C139.014 27.5931 138.491 27.4614 137.959 27.3398C137.463 27.2275 136.976 27.0759 136.504 26.8864C136.1 26.7327 135.738 26.4861 135.447 26.1664C135.169 25.8278 135.027 25.3975 135.049 24.9598C135.044 24.5387 135.169 24.1263 135.406 23.7781C135.681 23.3958 136.061 23.1021 136.501 22.9331C137.099 22.7029 137.737 22.5947 138.377 22.6148C138.936 22.6192 139.491 22.7011 140.027 22.8581C140.597 23.0196 141.137 23.2711 141.627 23.6031L141.949 22.9164C141.452 22.5701 140.899 22.3098 140.316 22.1464C139.687 21.9575 139.034 21.8615 138.377 21.8614C137.407 21.8614 136.612 22.0064 135.992 22.2964C135.434 22.5338 134.958 22.9295 134.622 23.4348C134.33 23.896 134.177 24.432 134.182 24.9781C134.159 25.5068 134.297 26.03 134.579 26.4781C134.849 26.8677 135.213 27.1826 135.637 27.3931C136.101 27.6257 136.588 27.8083 137.091 27.9381C137.621 28.0781 138.146 28.2092 138.666 28.3314C139.155 28.446 139.635 28.597 140.102 28.7831C140.508 28.9374 140.872 29.1825 141.167 29.4998C141.45 29.8365 141.594 30.2675 141.572 30.7064C141.575 31.1205 141.448 31.5251 141.209 31.8631C140.925 32.2423 140.537 32.5316 140.092 32.6964C139.476 32.9194 138.823 33.0224 138.167 32.9998C137.399 33.004 136.637 32.8591 135.924 32.5731C135.302 32.3417 134.735 31.9849 134.257 31.5248L133.862 32.1664C134.37 32.6865 134.993 33.0794 135.681 33.3131C136.48 33.6124 137.327 33.7626 138.181 33.7564C139.161 33.7564 139.964 33.6142 140.591 33.3298C141.157 33.0946 141.642 32.6989 141.986 32.1914C142.285 31.7354 142.444 31.2017 142.442 30.6564C142.469 30.1349 142.326 29.6188 142.036 29.1848Z" fill="white"/>
<path d="M57.0407 12.5198C52.4157 1.62642 43.9074 0.0414182 33.6491 0.0314182C29.9824 0.0314182 27.6307 -0.0502483 25.2941 0.0497517C21.0007 0.233085 18.4057 2.53142 18.4007 6.77475C18.3957 11.0181 21.0341 13.3564 25.3041 13.4998C29.6607 13.6414 34.0291 13.4181 38.3857 13.5648C42.3974 13.6981 44.8191 15.9531 44.8374 19.9148C44.8591 23.9314 42.4257 26.2014 38.3674 26.3348C33.9457 26.4798 29.5107 26.2248 25.0924 26.4131C20.8591 26.5964 18.3357 29.0231 18.3957 33.2264C18.4557 37.3831 21.0257 39.6964 25.2141 39.8331C29.6357 39.9798 34.0641 39.8698 38.4891 39.8648C52.6941 39.8431 62.5507 25.4998 57.0407 12.5198Z" fill="white"/>
<path d="M11.9141 13.3197C7.41408 13.3197 5.14574 15.6347 5.09574 19.8347C5.04574 24.0014 7.52741 26.5431 11.6974 26.6181C15.9174 26.6964 18.5124 24.2031 18.5774 20.0081C18.6424 15.8131 16.2574 13.3197 11.9141 13.3197Z" fill="white"/>
<path d="M27.7341 42.6064C25.9824 42.6064 24.2224 42.5881 22.4774 42.5314C18.1441 42.3898 15.6441 39.9514 15.5791 35.8414C15.5191 31.6481 17.9874 29.1331 22.3541 28.9448C24.6874 28.8448 27.0474 28.8681 29.3374 28.8914C31.4007 28.9131 33.5357 28.9348 35.6307 28.8648C39.7124 28.7314 42.0407 26.4214 42.0207 22.5314C42.0024 18.6814 39.6874 16.3981 35.6491 16.2631C33.4607 16.1898 31.2324 16.2098 29.0757 16.2298C26.9191 16.2498 24.7424 16.2698 22.5757 16.1981C18.1357 16.0531 15.5891 13.5731 15.5924 9.39476C15.5957 5.21643 18.0724 2.77643 22.5641 2.58476C24.1141 2.51976 25.6541 2.53143 27.6041 2.54976C28.5791 2.54976 29.6824 2.56643 30.9241 2.56643C42.1307 2.57809 49.9657 4.67976 54.3924 15.1064C56.9807 21.1998 56.3491 27.8948 52.6624 33.4748C50.8178 36.2698 48.3083 38.5634 45.3591 40.1499C42.4098 41.7364 39.113 42.5661 35.7641 42.5648C34.4657 42.5648 33.1457 42.5764 31.8691 42.5864C30.5007 42.5948 29.1207 42.6064 27.7341 42.6064ZM26.2941 29.0381C24.9841 29.0381 23.6657 29.0548 22.3624 29.1114C18.0974 29.2964 15.6957 31.7481 15.7457 35.8398C15.8024 39.8481 18.2574 42.2264 22.4824 42.3648C25.6057 42.4664 28.7841 42.4414 31.8591 42.4181C33.1357 42.4081 34.4557 42.3964 35.7557 42.3964C39.0771 42.3976 42.3469 41.5747 45.272 40.0013C48.197 38.4279 50.686 36.1534 52.5157 33.3814C56.1707 27.8481 56.7957 21.2148 54.2307 15.1698C49.8341 4.83309 42.0541 2.74309 30.9157 2.73143C29.6741 2.73143 28.5691 2.72143 27.5941 2.71309C25.6474 2.69809 24.1091 2.68476 22.5641 2.74976C18.1674 2.93809 15.7541 5.29643 15.7507 9.39309C15.7474 13.4898 18.2357 15.8931 22.5724 16.0298C24.7391 16.1014 26.9424 16.0814 29.0724 16.0614C31.2307 16.0414 33.4607 16.0214 35.6541 16.0948C39.7857 16.2331 42.1674 18.5781 42.1857 22.5281C42.2057 26.5281 39.8191 28.8948 35.6341 29.0281C33.5357 29.0981 31.3991 29.0764 29.3341 29.0548C28.3341 29.0481 27.3157 29.0381 26.2941 29.0381Z" fill="white"/>
<path d="M9.14908 29.3214H8.96074C4.72574 29.2448 2.22741 26.6781 2.27908 22.4531C2.33074 18.1364 4.71741 15.8548 9.17908 15.8548C11.3457 15.8548 13.0441 16.4614 14.2207 17.6548C15.3674 18.8214 15.9574 20.5398 15.9274 22.6281C15.8974 24.7164 15.2391 26.4148 14.0307 27.5831C12.8524 28.7214 11.1674 29.3214 9.14908 29.3214ZM9.17908 16.0198C4.82408 16.0198 2.49574 18.2448 2.44574 22.4531C2.39574 26.5748 4.83241 29.0781 8.96408 29.1531C11.0224 29.1898 12.7324 28.6048 13.9157 27.4614C15.0991 26.3181 15.7291 24.6531 15.7607 22.6281C15.7924 20.6031 15.2174 18.9081 14.0941 17.7764C12.9574 16.6098 11.3007 16.0198 9.17908 16.0198Z" fill="white"/>
<path d="M25.4591 45.0648C23.7074 45.0648 21.9457 45.0481 20.2007 44.9897C15.8674 44.8481 13.3674 42.4097 13.3024 38.3014C13.2407 34.1064 15.7107 31.5931 20.0774 31.4031C22.4107 31.3047 24.7707 31.3281 27.0624 31.3514C29.1257 31.3731 31.2591 31.3931 33.3541 31.3247C37.4341 31.1914 39.7641 28.8814 39.7441 24.9914C39.7257 21.1414 37.4107 18.8564 33.3724 18.7231C31.1824 18.6497 28.9541 18.6697 26.7974 18.6897C24.6407 18.7097 22.4641 18.7281 20.2974 18.6581C15.8557 18.5131 13.3107 16.0331 13.3124 11.8531C13.3141 7.67308 15.7941 5.23641 20.2857 5.04475C21.8341 4.97808 23.3741 4.99141 25.3241 5.00808C26.2974 5.01641 27.4024 5.02641 28.6457 5.02641C39.8524 5.03641 47.6874 7.13975 52.1141 17.5664C54.7007 23.6597 54.0707 30.3547 50.3841 35.9331C48.5397 38.7288 46.0301 41.0229 43.0804 42.6094C40.1308 44.196 36.8333 45.0253 33.4841 45.0231C32.1891 45.0231 30.8707 45.0347 29.5957 45.0447C28.2291 45.0547 26.8474 45.0648 25.4591 45.0648ZM24.0191 31.4997C22.7074 31.4997 21.3891 31.5164 20.0841 31.5714C15.8207 31.7564 13.4174 34.2097 13.4691 38.2998C13.5257 42.2998 15.9807 44.6864 20.2057 44.8248C23.3307 44.9281 26.5107 44.9031 29.5874 44.8781C30.8624 44.8681 32.1807 44.8581 33.4774 44.8564C36.7998 44.8579 40.0705 44.0342 42.9958 42.4592C45.9211 40.8843 48.4095 38.6074 50.2374 35.8331C53.8941 30.3014 54.5191 23.6664 51.9541 17.6231C47.5624 7.27975 39.7774 5.19475 28.6374 5.18475C27.3957 5.18475 26.2907 5.17475 25.3157 5.16641C23.3691 5.14975 21.8307 5.13641 20.2857 5.20308C15.8974 5.38975 13.4774 7.74975 13.4724 11.8447C13.4674 15.9397 15.9574 18.3447 20.2957 18.4831C22.4624 18.5531 24.6641 18.5331 26.7957 18.5147C28.9541 18.4947 31.1857 18.4747 33.3774 18.5481C37.5107 18.6847 39.8907 21.0297 39.9107 24.9814C39.9307 28.9814 37.5424 31.3464 33.3591 31.4814C31.2607 31.5497 29.1241 31.5281 27.0607 31.5081C26.0574 31.5081 25.0407 31.4997 24.0191 31.4997Z" fill="white"/>
<path d="M6.8724 31.7798H6.68407C2.44907 31.7048 -0.0492635 29.1364 0.000736543 24.9114C0.0540699 20.5964 2.43907 18.3148 6.9024 18.3148C9.06907 18.3148 10.7657 18.9198 11.9424 20.1148C13.0907 21.2814 13.6807 22.9998 13.6491 25.0864C13.6174 27.1731 12.9624 28.8748 11.7541 30.0414C10.5741 31.1798 8.88907 31.7798 6.8724 31.7798ZM6.9024 18.4798C2.5474 18.4798 0.21907 20.7048 0.167403 24.9131C0.11907 29.0331 2.55574 31.5381 6.6874 31.6114C8.74407 31.6498 10.4541 31.0648 11.6391 29.9198C12.8241 28.7748 13.4507 27.1114 13.4824 25.0864C13.5141 23.0614 12.9407 21.3664 11.8157 20.2331C10.6807 19.0681 9.02407 18.4798 6.9024 18.4798Z" fill="white"/>
</g>
<defs>
<clipPath id="clip0_57_20">
<rect width="142.5" height="45" fill="white"/>
</clipPath>
</defs>
</svg>
