<svg width="119" height="30" viewBox="0 0 119 30" fill="none" xmlns="http://www.w3.org/2000/svg">
<g clip-path="url(#clip0_10_76)">
<path d="M33.3997 16.9835C33.3981 17.0862 33.3559 17.184 33.2823 17.2556C33.2087 17.3272 33.1097 17.3668 33.0071 17.3656H25.7753C25.9606 19.1541 27.3026 20.7909 29.2006 20.7909C30.4985 20.7909 31.4585 20.2994 32.1785 19.2635C32.2119 19.2091 32.2582 19.1637 32.3133 19.1314C32.3684 19.0991 32.4306 19.0808 32.4944 19.0782C32.542 19.077 32.5894 19.0855 32.6336 19.1032C32.6778 19.1208 32.718 19.1473 32.7517 19.181C32.7853 19.2147 32.8118 19.2548 32.8295 19.2991C32.8471 19.3433 32.8556 19.3906 32.8544 19.4382C32.8549 19.5039 32.8362 19.5683 32.8006 19.6235C32.0691 20.8888 30.6185 21.5109 29.2006 21.5109C26.7679 21.5109 25.0226 19.3288 25.0226 17.0056C25.0226 14.6824 26.7574 12.5003 29.2006 12.5003C31.6447 12.5003 33.3891 14.6603 33.4006 16.9835H33.3997ZM32.6259 16.6456C32.4732 14.8571 31.0994 13.2203 29.2006 13.2203C27.3026 13.2203 25.9606 14.8571 25.7753 16.6456H32.6259ZM42.1924 12.675C42.2511 12.6769 42.3085 12.6928 42.3599 12.7213C42.4113 12.7497 42.4552 12.79 42.4879 12.8388C42.5207 12.8876 42.5414 12.9435 42.5483 13.0018C42.5552 13.0602 42.5481 13.1193 42.5276 13.1744C42.501 13.241 42.4546 13.2979 42.3946 13.3373C42.3347 13.3768 42.2641 13.3969 42.1924 13.395H40.2512V21.0194C40.2505 21.1148 40.2122 21.2061 40.1447 21.2735C40.0771 21.3409 39.9857 21.379 39.8903 21.3794C39.7957 21.3767 39.7056 21.338 39.6387 21.271C39.5717 21.2041 39.533 21.1141 39.5303 21.0194V13.395H37.665C37.6173 13.3966 37.5698 13.3884 37.5254 13.3709C37.481 13.3533 37.4406 13.3269 37.4069 13.2931C37.3731 13.2594 37.3467 13.219 37.3291 13.1746C37.3116 13.1302 37.3034 13.0827 37.305 13.035C37.3059 12.9398 37.3441 12.8488 37.4115 12.7815C37.4788 12.7141 37.5698 12.6759 37.665 12.675H39.5303V9.89383C39.5304 9.8016 39.5635 9.71245 39.6235 9.64242C39.6835 9.57238 39.7665 9.52605 39.8576 9.51177C39.9086 9.50504 39.9603 9.50937 40.0094 9.52446C40.0585 9.53955 40.1038 9.56504 40.1422 9.59921C40.1805 9.63338 40.211 9.67541 40.2317 9.72244C40.2523 9.76948 40.2626 9.82041 40.2618 9.87177V12.675H42.1924ZM54.0265 16.3615V20.9762C54.0245 21.0348 54.0086 21.0921 53.9802 21.1434C53.9518 21.1947 53.9116 21.2385 53.8629 21.2713C53.8142 21.304 53.7585 21.3247 53.7003 21.3317C53.642 21.3387 53.583 21.3318 53.5279 21.3115C53.4613 21.2848 53.4045 21.2384 53.365 21.1784C53.3256 21.1185 53.3055 21.0479 53.3073 20.9762V16.3615C53.3073 14.8024 52.4232 13.2529 50.6894 13.2529C48.4641 13.2529 47.5041 15.1941 47.6347 17.1909C47.6347 17.2456 47.6568 17.4741 47.6568 17.5068V20.9656C47.6564 21.0575 47.6234 21.1464 47.5636 21.2162C47.5038 21.286 47.4211 21.3323 47.3303 21.3468C47.2794 21.3535 47.2276 21.3492 47.1785 21.3341C47.1294 21.319 47.0841 21.2935 47.0458 21.2593C47.0074 21.2252 46.9769 21.1831 46.9562 21.1361C46.9356 21.0891 46.9253 21.0381 46.9262 20.9868V5.81383C46.9269 5.71856 46.965 5.6274 47.0324 5.56003C47.0997 5.49267 47.1909 5.45452 47.2862 5.45383C47.3808 5.45649 47.4708 5.49528 47.5378 5.56222C47.6047 5.62917 47.6435 5.71919 47.6462 5.81383V14.3877C48.2673 13.275 49.38 12.5224 50.6779 12.5224C52.8159 12.5224 54.0273 14.3877 54.0273 16.3615H54.0265ZM67.0182 16.9835C67.0166 17.0862 66.9744 17.184 66.9008 17.2556C66.8272 17.3272 66.7283 17.3668 66.6256 17.3656H59.3938C59.5791 19.1541 60.9203 20.7909 62.8191 20.7909C64.1171 20.7909 65.0771 20.2994 65.7971 19.2635C65.8305 19.2091 65.8767 19.1637 65.9318 19.1314C65.9869 19.0991 66.0491 19.0808 66.1129 19.0782C66.1605 19.077 66.2079 19.0855 66.2521 19.1032C66.2963 19.1208 66.3365 19.1473 66.3702 19.181C66.4039 19.2147 66.4303 19.2548 66.448 19.2991C66.4657 19.3433 66.4741 19.3906 66.4729 19.4382C66.4731 19.504 66.4541 19.5684 66.4182 19.6235C65.6876 20.8888 64.2371 21.5109 62.8182 21.5109C60.3865 21.5109 58.6412 19.3288 58.6412 17.0056C58.6412 14.6824 60.3759 12.5003 62.8191 12.5003C65.2403 12.5003 67.0076 14.6603 67.0191 16.9835H67.0182ZM66.2329 16.6456C66.0803 14.8571 64.7065 13.2203 62.8085 13.2203C60.9097 13.2203 59.5685 14.8571 59.3832 16.6456H66.2329ZM75.9088 13.0129C75.9159 13.1099 75.8841 13.2057 75.8206 13.2794C75.7571 13.353 75.667 13.3984 75.57 13.4056C73.4435 13.7224 72.4835 15.4571 72.4835 17.475V20.9329C72.4832 21.025 72.45 21.114 72.39 21.1838C72.33 21.2537 72.2471 21.2999 72.1562 21.3141C72.1053 21.3209 72.0536 21.3165 72.0045 21.3014C71.9554 21.2863 71.9102 21.2608 71.8719 21.2267C71.8337 21.1925 71.8032 21.1504 71.7827 21.1034C71.7621 21.0564 71.752 21.0054 71.7529 20.9541V13.0677C71.753 12.9756 71.786 12.8865 71.8458 12.8165C71.9056 12.7465 71.9885 12.7001 72.0794 12.6856C72.1304 12.6789 72.1823 12.6832 72.2314 12.6983C72.2806 12.7135 72.3259 12.7391 72.3643 12.7733C72.4026 12.8076 72.4331 12.8497 72.4537 12.8969C72.4743 12.944 72.4845 12.995 72.4835 13.0465V14.6497C73.0835 13.635 74.2721 12.675 75.5162 12.675C75.7015 12.675 75.9088 12.8065 75.9088 13.0129ZM87.7985 16.9835C87.7969 17.0862 87.7547 17.184 87.6811 17.2556C87.6075 17.3272 87.5085 17.3668 87.4059 17.3656H80.1732C80.3585 19.1541 81.7006 20.7909 83.5985 20.7909C84.8965 20.7909 85.8573 20.2994 86.5765 19.2635C86.6099 19.2091 86.6562 19.1638 86.7113 19.1315C86.7664 19.0992 86.8285 19.0809 86.8923 19.0782C86.94 19.0769 86.9875 19.0853 87.0318 19.1029C87.0761 19.1205 87.1164 19.147 87.1502 19.1807C87.1839 19.2143 87.2105 19.2546 87.2282 19.2988C87.2459 19.3431 87.2544 19.3906 87.2532 19.4382C87.2534 19.504 87.2344 19.5684 87.1985 19.6235C86.467 20.8888 85.0165 21.5109 83.5985 21.5109C81.1659 21.5109 79.4206 19.3288 79.4206 17.0056C79.4206 14.6824 81.1553 12.5003 83.5985 12.5003C86.0426 12.5003 87.787 14.6603 87.7985 16.9835ZM87.0238 16.6456C86.8712 14.8571 85.4973 13.2203 83.5985 13.2203C81.7006 13.2203 80.3585 14.8571 80.1732 16.6456H87.0238ZM99.4915 13.1003V21.0194C99.4895 21.0781 99.4737 21.1356 99.4452 21.187C99.4167 21.2383 99.3764 21.2822 99.3276 21.315C99.2789 21.3477 99.223 21.3684 99.1646 21.3753C99.1063 21.3822 99.0471 21.3752 98.9921 21.3547C98.9253 21.3283 98.8683 21.2819 98.8288 21.2219C98.7893 21.1619 98.7693 21.0912 98.7715 21.0194V19.5141C98.1715 20.7035 97.1135 21.5656 95.7609 21.5656C93.6123 21.5656 92.4229 19.7003 92.4229 17.7256V13.0897C92.4243 12.9947 92.4627 12.9039 92.5299 12.8367C92.5971 12.7694 92.6879 12.7311 92.7829 12.7297C92.8775 12.7326 92.9674 12.7714 93.0343 12.8383C93.1012 12.9052 93.1401 12.9951 93.1429 13.0897V17.7256C93.1429 19.2856 94.0271 20.8341 95.7609 20.8341C98.1935 20.8341 98.7715 18.555 98.7715 16.0341V13.0782C98.7734 12.9905 98.8067 12.9063 98.8653 12.841C98.9239 12.7756 99.0039 12.7333 99.0909 12.7218C99.1486 12.7141 99.2073 12.7204 99.2621 12.7403C99.3307 12.7721 99.3889 12.8229 99.4295 12.8867C99.4702 12.9505 99.4917 13.0246 99.4915 13.1003ZM117.806 16.3288V20.9656C117.804 21.0242 117.788 21.0815 117.759 21.1328C117.731 21.1841 117.691 21.2279 117.642 21.2607C117.593 21.2934 117.538 21.3141 117.479 21.3211C117.421 21.3281 117.362 21.3212 117.307 21.3009C117.263 21.2833 117.222 21.2565 117.189 21.2224C117.155 21.189 117.128 21.149 117.111 21.1048C117.093 21.0606 117.085 21.0132 117.086 20.9656V16.3288C117.086 14.7697 116.202 13.2424 114.469 13.2424C112.286 13.2424 111.458 15.5771 111.458 17.3877V20.9656C111.456 21.0243 111.44 21.0817 111.412 21.1331C111.383 21.1845 111.343 21.2284 111.294 21.2612C111.245 21.2939 111.189 21.3146 111.131 21.3215C111.073 21.3284 111.014 21.3213 110.959 21.3009C110.892 21.2744 110.835 21.2281 110.795 21.1681C110.756 21.1081 110.736 21.0374 110.738 20.9656V16.3288C110.738 14.7697 109.854 13.2424 108.12 13.2424C105.916 13.2424 105.011 14.9771 105.087 17.2888C105.087 17.3435 105.109 17.4415 105.087 17.4741V20.9541C105.087 21.0464 105.054 21.1356 104.994 21.2057C104.934 21.2758 104.851 21.3221 104.76 21.3362C104.709 21.3429 104.657 21.3386 104.608 21.3235C104.559 21.3084 104.514 21.2829 104.476 21.2487C104.437 21.2145 104.407 21.1725 104.386 21.1254C104.366 21.0784 104.356 21.0275 104.357 20.9762V13.0677C104.357 12.9753 104.389 12.886 104.45 12.8159C104.51 12.7458 104.593 12.6995 104.684 12.6856C104.735 12.679 104.787 12.6834 104.836 12.6986C104.885 12.7137 104.93 12.7393 104.968 12.7734C105.006 12.8076 105.037 12.8495 105.057 12.8965C105.078 12.9435 105.088 12.9943 105.087 13.0456V14.3656C105.709 13.2538 106.822 12.5224 108.12 12.5224C109.593 12.5224 110.738 13.4603 111.206 14.8235C111.806 13.4709 112.974 12.5224 114.469 12.5224C116.595 12.5224 117.806 14.3665 117.806 16.3288Z" fill="#5C6D8A" stroke="#5C6D8A"/>
<path opacity="0.6" d="M9.05294 10.9191L0 15.0309L9.05294 20.3868L18.1182 15.0309L9.05382 10.9191H9.05294Z" fill="#5C6D8A"/>
<path opacity="0.45" d="M0 15.0309L9.05294 20.3868V0L0 15.0309Z" fill="#5C6D8A"/>
<path opacity="0.8" d="M9.05295 0V20.3868L18.1182 15.0309L9.05295 0Z" fill="#5C6D8A"/>
<path opacity="0.45" d="M0 16.755L9.05294 29.5174V22.0994L0 16.7559V16.755Z" fill="#5C6D8A"/>
<path opacity="0.8" d="M9.05295 22.0994V29.5174L18.1182 16.755L9.05383 22.0994H9.05295Z" fill="#5C6D8A"/>
</g>
<defs>
<clipPath id="clip0_10_76">
<rect width="118.235" height="30" fill="white"/>
</clipPath>
</defs>
</svg>
