<svg width="94" height="30" viewBox="0 0 94 30" fill="none" xmlns="http://www.w3.org/2000/svg">
<path d="M72.019 11.3565H70.0713C69.959 11.3564 69.8479 11.3324 69.7456 11.2862C69.6432 11.24 69.552 11.1726 69.478 11.0885L68.688 10.201C68.6296 10.136 68.5581 10.084 68.4781 10.0484C68.3981 10.0128 68.3114 9.9944 68.2238 9.9944C68.1362 9.9944 68.0495 10.0128 67.9696 10.0484C67.8896 10.084 67.818 10.136 67.7597 10.201L67.0825 10.9617C66.9734 11.0854 66.8391 11.1847 66.6884 11.2527C66.5378 11.3208 66.3743 11.3562 66.2088 11.3565H55.5496C55.2423 12.2329 55.0478 13.1444 54.9708 14.0694H65.033C65.1201 14.0693 65.2064 14.0516 65.2865 14.0174C65.3666 13.9831 65.4389 13.9331 65.4989 13.8702L66.4382 12.8959C66.4963 12.8362 66.5659 12.7888 66.6428 12.7564C66.7197 12.7241 66.8024 12.7074 66.8859 12.7075H66.9224C67.0102 12.7079 67.0969 12.7265 67.1771 12.762C67.2574 12.7976 67.3293 12.8493 67.3883 12.914L68.1783 13.8014C68.2522 13.8857 68.3434 13.9532 68.4458 13.9995C68.5481 14.0457 68.6593 14.0696 68.7717 14.0694H76.9809C76.9056 13.1442 76.7111 12.2324 76.4021 11.3565H72.0335H72.019ZM61.0576 19.7742C61.1447 19.7737 61.2308 19.7558 61.3109 19.7216C61.3909 19.6874 61.4632 19.6375 61.5236 19.575L62.4592 18.6007C62.5177 18.5415 62.5873 18.4944 62.6642 18.4621C62.741 18.4297 62.8235 18.4128 62.9069 18.4123H62.947C63.0348 18.4127 63.1216 18.4313 63.2018 18.4668C63.282 18.5024 63.3539 18.5541 63.413 18.6188L64.1993 19.5062C64.2737 19.59 64.365 19.6571 64.4672 19.7033C64.5695 19.7495 64.6804 19.7737 64.7927 19.7742H75.9215C76.3456 18.9069 76.6516 17.9873 76.8316 17.0396H66.1469C66.0355 17.0392 65.9254 17.0154 65.8238 16.9699C65.7221 16.9243 65.6313 16.858 65.5572 16.7751L64.7672 15.8877C64.7089 15.8219 64.6372 15.7691 64.5569 15.7329C64.4766 15.6966 64.3894 15.6778 64.3012 15.6777C64.2135 15.6774 64.1267 15.696 64.0469 15.7323C63.9671 15.7686 63.8962 15.8216 63.8389 15.8877L63.1618 16.6484C63.0516 16.7716 62.9165 16.8701 62.7653 16.9376C62.614 17.005 62.4501 17.0398 62.2844 17.0396H55.12C55.2983 17.9896 55.6031 18.9117 56.0265 19.7815L61.0576 19.7742ZM68.9537 8.38999C69.0415 8.38994 69.1283 8.37227 69.209 8.33804C69.2896 8.30381 69.3626 8.25372 69.4233 8.19077L70.3589 7.22005C70.4166 7.15955 70.4861 7.11134 70.563 7.07834C70.64 7.04534 70.7229 7.02824 70.8067 7.02808H70.8468C70.9345 7.02783 71.0212 7.04648 71.101 7.08274C71.1809 7.119 71.2518 7.17202 71.3091 7.23816L72.0991 8.12558C72.174 8.2083 72.2655 8.27455 72.3677 8.32008C72.4699 8.36561 72.5805 8.38942 72.6925 8.38999H74.8076C73.7786 7.02679 72.4449 5.92049 70.9121 5.15857C69.3793 4.39665 67.6893 4 65.9758 4C64.2624 4 62.5724 4.39665 61.0396 5.15857C59.5067 5.92049 58.1731 7.02679 57.1441 8.38999H68.9537ZM64.7017 22.4908H61.8075C61.6957 22.4907 61.5852 22.4667 61.4834 22.4204C61.3817 22.3742 61.2911 22.3068 61.2178 22.2228L60.4314 21.3354C60.3727 21.2703 60.3009 21.2182 60.2206 21.1826C60.1403 21.1469 60.0534 21.1285 59.9655 21.1285C59.8775 21.1285 59.7906 21.1469 59.7103 21.1826C59.63 21.2182 59.5582 21.2703 59.4995 21.3354L58.8187 22.1105C58.7098 22.2345 58.5755 22.3338 58.4248 22.4019C58.2741 22.47 58.1105 22.5052 57.945 22.5053H57.9013C58.9345 23.608 60.1847 24.4873 61.5741 25.0885C62.9636 25.6897 64.4625 26 65.9777 26C67.4928 26 68.9917 25.6897 70.3812 25.0885C71.7706 24.4873 73.0208 23.608 74.054 22.5053L64.7017 22.4908ZM17.1356 25.2762L14.8894 19.8431H4.84544L2.59928 25.2762H0L9.85105 4.72442L19.7349 25.2762H17.1356ZM5.69366 17.7821H14.0121L9.82921 9.02023L5.69366 17.7821ZM23.3243 25.2762V4.72442H29.0763C33.5722 4.72442 35.9349 6.77091 35.9349 10.6357C35.9349 14.352 33.4266 16.5035 29.0471 16.5035H25.7489V25.2762H23.3243ZM25.7489 14.352H28.4938C31.9668 14.352 33.4921 13.2219 33.4921 10.6357C33.4921 7.96258 31.9449 6.85784 28.5011 6.85784H25.7489V14.352ZM44.7375 6.91579H37.6131V4.70994H54.2827V6.91579H47.1584V25.2762H44.7375V6.91579ZM80.3957 21.5273L82.4816 20.1183L82.6418 20.4516C83.9269 22.777 85.3285 23.7115 87.4581 23.7115C89.8244 23.7115 91.4881 22.0851 91.4881 20.1075C91.4881 18.2493 90.5525 16.9997 86.8174 15.4603C82.5253 13.6891 81.0655 11.86 81.0655 9.2448C81.0655 6.39783 83.3153 4.17386 87.196 4.17386C90.0574 4.17386 92.0123 5.39089 93.1227 7.36856L91.4298 8.53125L90.9347 8.41172C90.0574 7.04981 88.9762 6.26382 87.1378 6.26382C84.8916 6.26382 83.5774 7.51344 83.5774 9.19772C83.5774 10.7661 84.422 11.668 88.0733 13.3233C92.8314 15.4712 94 17.2424 94 20.0894C94 23.1971 91.3134 25.8413 87.4872 25.8413C84.2764 25.8413 82.0593 24.6206 80.3957 21.5418" fill="#5C6D8A"/>
</svg>
