<svg width="147" height="30" viewBox="0 0 147 30" fill="none" xmlns="http://www.w3.org/2000/svg">
<path d="M4.30761 5.98233L11.1596 2L18.0104 5.98233L15.4919 7.4535L11.1596 4.94233L6.82613 7.4535L4.30761 5.98233ZM18.0094 11.0047L15.4919 9.5335L11.1596 12.0447L6.82613 9.5335L4.30761 11.0047V13.947L8.63997 16.4582V21.4805L11.1596 22.9517L13.6781 21.4805V16.4582L18.0104 13.947V11.0047H18.0094ZM18.0094 18.9693V16.027L15.4919 17.4982V20.4405L18.0104 18.9693H18.0094ZM19.7985 20.0093L15.4661 22.5205V25.4628L22.317 21.4805V13.5158L19.7985 14.987V20.0093ZM17.2799 8.4935L19.7974 9.96467V12.907L22.317 11.4358V8.4935L19.7985 7.02233L17.2799 8.4935ZM8.63889 23.5865V26.5288L11.1596 28L13.6781 26.5288V23.5865L11.1596 25.0577L8.63997 23.5865H8.63889ZM4.30654 18.9693L6.82505 20.4405V17.4982L4.30654 16.027V18.9693ZM8.63889 8.4935L11.1585 9.96467L13.677 8.4935L11.1585 7.02233L8.63889 8.4935ZM2.51744 9.96467L5.03702 8.4935L2.51744 7.02233L0 8.4935V11.4358L2.51851 12.907V9.96467H2.51744ZM2.51744 14.987L0 13.5158V21.4805L6.85195 25.4639V22.5205L2.51744 20.0093V14.987ZM42.1778 18.3172V18.2749C42.1778 16.3325 41.1515 15.3608 39.4883 14.7205C40.5146 14.1409 41.3774 13.232 41.3774 11.5983V11.5572C41.3774 9.28325 39.57 7.81533 36.6352 7.81533H29.9639V22.2854H36.7998C40.0423 22.2854 42.1778 20.9627 42.1778 18.3161V18.3172ZM38.2349 12.1346C38.2349 13.2092 37.3527 13.6643 35.9563 13.6643H33.0408V10.606H36.1618C37.4958 10.606 38.2349 11.1433 38.2349 12.0945V12.1357V12.1346ZM39.0364 17.9228C39.0364 18.9975 38.194 19.4937 36.7987 19.4937H33.0419V16.3108H36.6954C38.3177 16.3108 39.0353 16.9099 39.0353 17.8817V17.9228H39.0364ZM57.7515 22.2854V7.81533H54.6316V16.7247L47.898 7.81533H44.9825V22.2854H48.1035V13.0879L55.063 22.2854H57.7526H57.7515ZM73.621 18.3172V18.2749C73.621 16.3325 72.5947 15.3608 70.9315 14.7205C71.9578 14.1409 72.8195 13.232 72.8195 11.5983V11.5572C72.8195 9.28325 71.0132 7.81533 68.0784 7.81533H61.4061V22.2854H68.2419C71.4855 22.2854 73.621 20.9627 73.621 18.3161V18.3172ZM69.6792 12.1357C69.6792 13.2103 68.797 13.6653 67.4006 13.6653H64.4851V10.606H67.605C68.9401 10.606 69.6792 11.1433 69.6792 12.0945V12.1357ZM70.4796 17.9239C70.4796 18.9986 69.6383 19.4948 68.2419 19.4948H64.4862V16.3119H68.1397C69.761 16.3119 70.4796 16.911 70.4796 17.8828V17.9239ZM92.6729 19.7298L91.0516 18.0756C89.8198 19.2337 88.6912 19.9573 86.9258 19.9573C84.1749 19.9573 82.1835 17.6412 82.1835 14.7898C82.1835 11.9363 84.1738 9.66242 86.9258 9.66242C88.5675 9.66242 89.7993 10.3861 90.9494 11.4608L92.5706 9.58008C91.1957 8.25733 89.5938 7.32675 86.9462 7.32675C82.5945 7.32675 79.5359 10.6959 79.5359 14.8299C79.5359 19.0062 82.6558 22.293 86.8429 22.293C89.5325 22.293 91.1753 21.3007 92.6739 19.7298H92.6729ZM104.914 15.9468V22.0449H107.439V7.57483H104.914V13.5895H98.0574V7.57483H95.5324V22.0449H98.0574V15.9458H104.914V15.9468ZM118.765 7.47083H116.425L110.102 22.0449H112.689L114.167 18.5512H120.962L122.419 22.0449H125.088L118.765 7.47083ZM120.038 16.2978H115.091L117.554 10.5096L120.038 16.2978ZM127.901 7.57483V22.0449H130.426V7.57483H127.901ZM144.516 17.5794L136.817 7.57483H134.477V22.0449H136.961V11.75L144.885 22.0449H147V7.57483H144.516V17.5794Z" fill="#5C6D8A"/>
</svg>
