<svg width="134" height="30" viewBox="0 0 134 30" fill="none" xmlns="http://www.w3.org/2000/svg">
<path d="M52.5476 9.34966C53.3576 9.84518 54.0434 10.5259 54.4789 11.4548C54.9786 12.3838 55.2279 13.4979 55.2279 14.7362C55.2279 15.9745 54.9776 17.0276 54.4169 17.9566C53.935 18.8597 53.1679 19.5781 52.2351 19.9997C51.301 20.4952 50.1786 20.7424 48.9941 20.7424C48.3323 20.7448 47.6764 20.6187 47.0627 20.371C46.4389 20.1848 45.8782 19.8134 45.4417 19.38V25.8197H41.8262V8.85518H44.9431L45.2545 10.2176C46.6262 9.10242 48.122 8.54586 49.68 8.54586C50.7393 8.54586 51.7365 8.79311 52.5476 9.35069V9.34966ZM50.5531 17.0276C51.1758 16.47 51.4872 15.7272 51.4872 14.7983C51.4872 13.8693 51.1769 13.1266 50.6151 12.5069C50.0545 11.8883 49.3065 11.64 48.4955 11.64C47.8107 11.64 47.1869 11.7641 46.6882 12.0745C46.1896 12.3217 45.8162 12.7552 45.5038 13.3117V16.0986C45.691 16.6562 46.0655 17.0897 46.501 17.399C46.9996 17.7093 47.5614 17.8945 48.2462 17.8945C49.1814 17.8945 49.9293 17.5841 50.5531 17.0276ZM57.3465 11.5159C57.9072 10.649 58.6551 9.90518 59.6534 9.40966C60.697 8.88251 61.8494 8.60688 63.0186 8.60483C64.2651 8.60483 65.3876 8.85311 66.3838 9.40966C67.3189 9.90621 68.0669 10.649 68.6286 11.5769C69.1893 12.5059 69.4386 13.4969 69.4386 14.6731C69.4386 15.8503 69.1893 16.8403 68.6275 17.7693C68.0669 18.6983 67.381 19.441 66.3838 19.9366C65.4486 20.4321 64.2651 20.7414 63.0186 20.7414C61.772 20.7414 60.6496 20.4931 59.6524 19.9986C58.6551 19.5021 57.9072 18.8224 57.3455 17.8935C56.8085 16.9054 56.5302 15.7976 56.5365 14.6731C56.5365 13.4969 56.8469 12.4438 57.3465 11.5159ZM61.0241 16.9024C61.5227 17.5221 62.2086 17.7693 63.0186 17.7693C63.8286 17.7693 64.5145 17.459 65.0131 16.9024C65.5117 16.3448 65.761 15.54 65.761 14.6731C65.761 13.7441 65.5117 13.0014 65.0131 12.4438C64.4524 11.8252 63.8286 11.5159 62.9565 11.5159C62.1455 11.5159 61.5227 11.8252 60.962 12.3828C60.4624 13.0014 60.2131 13.7441 60.2131 14.6731C60.2131 15.54 60.4624 16.2838 61.0241 16.9024ZM75.2979 0.0610364V20.431H71.6824V0.0620709H75.2979V0.0610364ZM90.1313 9.16242L82.7762 25.8807H79.2869L82.0282 19.8745L76.7938 9.16242H80.9069L83.8986 15.8503L86.8903 9.16242H90.1313ZM103.968 9.16242V20.4321C103.973 21.4767 103.646 22.496 103.033 23.3421C102.41 24.209 101.6 24.8907 100.54 25.3852C99.48 25.8817 98.3576 26.1279 97.112 26.1279C96.1769 26.1279 95.3669 26.0038 94.681 25.8186C93.9951 25.5703 93.4345 25.3231 92.9979 25.0759C92.4993 24.7655 92.0007 24.3941 91.44 23.8997L93.5596 21.4221C94.0168 21.8737 94.5426 22.2501 95.1176 22.5372C95.6162 22.7855 96.302 22.9707 97.05 22.9707C97.9841 22.9707 98.732 22.7224 99.3558 22.29C99.9786 21.8555 100.291 21.1748 100.291 20.37V18.7603C99.8884 19.3718 99.3284 19.8636 98.67 20.1838C97.922 20.5562 97.05 20.7424 96.0527 20.7424C95.0545 20.7424 94.0582 20.4941 93.1851 19.9366C92.3131 19.441 91.6272 18.6983 91.0655 17.7693C90.5669 16.8403 90.2555 15.8503 90.2555 14.7352C90.2555 13.621 90.5048 12.5679 91.0655 11.639C91.6272 10.71 92.3131 9.96724 93.2482 9.40966C94.0841 8.87347 95.0587 8.59369 96.0517 8.60483C96.9869 8.60483 97.7979 8.72897 98.5448 8.97724C99.2938 9.22449 99.8545 9.59586 100.228 10.0293L100.602 9.16242H103.968ZM100.291 16.0976V13.3107C100.054 12.7559 99.6369 12.2976 99.1065 12.0103C98.5163 11.6803 97.8503 11.5099 97.1741 11.5159C96.302 11.5159 95.5531 11.8252 94.9303 12.3828C94.3065 12.9393 93.9951 13.6821 93.9951 14.611C93.9951 15.4779 94.3075 16.2838 94.9303 16.9024C95.2215 17.2017 95.5707 17.4384 95.9565 17.5982C96.3423 17.7579 96.7566 17.8372 97.1741 17.8314C98.6079 17.7693 99.6672 17.2117 100.291 16.0976ZM106.961 11.5169C107.522 10.5879 108.27 9.90621 109.267 9.34966C110.311 8.8224 111.463 8.54677 112.632 8.54483C113.879 8.54483 115.001 8.79207 115.999 9.34966C116.934 9.84518 117.682 10.5879 118.242 11.5169C118.741 12.4448 119.052 13.4359 119.052 14.6121C119.052 15.7893 118.803 16.7793 118.242 17.7083C117.742 18.6493 116.956 19.4079 115.999 19.8755C115.063 20.371 113.879 20.6803 112.632 20.6803C111.386 20.6803 110.264 20.4321 109.267 19.9376C108.27 19.4421 107.522 18.7614 106.961 17.8324C106.4 16.9035 106.15 15.8514 106.15 14.551C106.15 13.4979 106.4 12.4448 106.961 11.5169ZM110.576 16.9035C111.074 17.5231 111.76 17.7703 112.57 17.7703C113.38 17.7703 114.066 17.46 114.565 16.9035C115.063 16.3459 115.313 15.541 115.313 14.6741C115.313 13.7452 115.063 13.0024 114.565 12.4448C114.066 11.8883 113.38 11.579 112.57 11.579C111.76 11.579 111.137 11.8883 110.576 12.4448C110.015 13.0035 109.766 13.8072 109.766 14.6741C109.828 15.541 110.077 16.2838 110.576 16.9035ZM131.83 9.5338C132.578 10.1535 132.89 10.9583 132.952 11.9493V20.4321H129.274V13.3107C129.212 12.1966 128.651 11.639 127.592 11.639C126.781 11.639 126.096 12.0114 125.598 12.8162C125.099 13.621 124.85 14.611 124.85 15.7883V20.4321H121.234V9.16242H124.537L124.787 10.9583C125.203 10.2349 125.806 9.63629 126.532 9.22449C127.28 8.79 128.153 8.60483 129.15 8.60483C130.209 8.60483 131.144 8.91517 131.83 9.5338ZM26.3689 8.97931C25.7462 8.6069 24.9351 8.6069 24.2503 8.97931L19.3883 11.8262L16.0851 13.6841L11.2231 16.5331C10.5993 16.9045 9.78928 16.9045 9.10446 16.5331L5.23963 14.3038C4.61584 13.9314 4.18032 13.2507 4.18032 12.5079V8.11035C4.18032 7.36759 4.55377 6.68586 5.23963 6.31449L9.04135 4.14828C9.66514 3.7769 10.4751 3.7769 11.161 4.14828L14.9627 6.31552C15.5865 6.68793 16.022 7.36862 16.022 8.11138V10.9593L19.3262 9.04035V6.19242C19.3262 5.44862 18.9517 4.76793 18.2658 4.39655L11.2241 0.310347C10.6003 -0.0620671 9.79032 -0.0620671 9.10549 0.310347L1.93446 4.39655C1.61063 4.57032 1.34076 4.82971 1.15431 5.14641C0.967869 5.46311 0.872015 5.82495 0.877215 6.19242V14.4269C0.877215 15.1707 1.2517 15.8514 1.93756 16.2228L9.10549 20.309C9.72825 20.6814 10.5382 20.6814 11.2241 20.309L16.0862 17.5231L19.3893 15.6041L24.2514 12.8172C24.8741 12.4459 25.6841 12.4459 26.37 12.8172L30.1717 14.9845C30.7955 15.3569 31.232 16.0376 31.232 16.7803V21.1769C31.232 21.9197 30.8576 22.6003 30.1717 22.9717L26.37 25.201C25.7472 25.5735 24.9362 25.5735 24.2514 25.201L20.4486 23.0338C19.8258 22.6624 19.3893 21.9817 19.3893 21.239V18.39L16.0862 20.31V23.1579C16.0862 23.9007 16.4596 24.5824 17.1455 24.9538L24.3134 29.04C24.9362 29.4124 25.7472 29.4124 26.432 29.04L33.601 24.9538C34.2238 24.5814 34.6603 23.9007 34.6603 23.1579V14.9235C34.6603 14.1797 34.2858 13.499 33.6 13.1276L26.3689 8.97931Z" fill="#5C6D8A"/>
</svg>
