<svg width="115" height="30" viewBox="0 0 115 30" fill="none" xmlns="http://www.w3.org/2000/svg">
<path d="M26.9364 12.8402C24.7177 12.8402 22.8906 13.7539 21.4288 15.6089C19.968 17.4374 19.2365 19.605 19.2365 22.0357C19.2365 23.7068 19.7062 25.0653 20.6203 26.11C21.5333 27.1559 22.7597 27.6777 24.2997 27.6777C26.3622 27.6777 28.1112 26.8157 29.573 25.0906C30.5377 23.8378 30.9293 23.0805 31.1383 22.5311C31.6742 21.2306 31.9493 19.8372 31.9479 18.4304C31.9479 16.7846 31.5563 15.4526 30.7731 14.4078C29.9899 13.362 28.6853 12.8402 26.9364 12.8402ZM27.0145 23.8632C26.2577 24.6217 25.37 25.0125 24.3789 25.0125C23.6474 25.0125 23.0479 24.7516 22.6299 24.2298C22.2119 23.7068 22.003 22.9748 22.003 22.0611C22.003 20.2336 22.4473 18.6924 23.3603 17.4374C24.248 16.1835 25.3964 15.5571 26.7791 15.5571C28.3455 15.5571 29.1022 16.4973 29.1022 18.404C29.1286 21.2002 27.7977 23.0805 27.0145 23.8643V23.8632ZM9.86684 2.00001C4.43843 2.00001 0 6.41447 0 11.8748C0 12.9712 0.183697 14.0424 0.522492 15.0871C0.757888 15.7916 1.53998 16.1835 2.27146 15.9491C2.97545 15.7135 3.36705 14.9308 3.13275 14.1987C2.84641 13.3855 2.71362 12.5262 2.74116 11.6645C2.84566 7.98211 5.82111 4.95143 9.50055 4.76868C13.5991 4.55952 16.9914 7.82468 16.9914 11.8737C16.9889 13.6905 16.2931 15.4377 15.0464 16.7583C13.7997 18.0789 12.096 18.8731 10.2837 18.9786C10.2837 18.9786 8.90106 19.0579 8.22237 19.1614C7.88248 19.2142 7.62178 19.266 7.43918 19.2935C7.36108 19.3188 7.28298 19.2406 7.30828 19.1614L7.54368 18.0121L8.79656 12.1357C8.87144 11.7822 8.80359 11.4134 8.60781 11.1099C8.41204 10.8063 8.10425 10.5925 7.75158 10.5152C7.39872 10.4409 7.03083 10.5091 6.72799 10.705C6.42515 10.9009 6.21188 11.2085 6.1346 11.561C6.1346 11.561 3.05465 25.9273 3.02825 26.0836C2.95335 26.4369 3.02105 26.8055 3.21659 27.1091C3.41214 27.4126 3.71967 27.6265 4.07214 27.7041C4.42515 27.7787 4.79333 27.7106 5.09642 27.5147C5.39951 27.3188 5.61295 27.011 5.69021 26.6583C5.71661 26.5019 6.1346 24.5952 6.1346 24.5952C6.28298 23.8963 6.64332 23.2603 7.16642 22.774C7.68952 22.2877 8.34987 21.9749 9.05726 21.8783C9.37075 21.8266 10.5972 21.7484 10.5972 21.7484C15.6869 21.3565 19.7062 17.0984 19.7062 11.9001C19.715 10.602 19.467 9.31493 18.9763 8.11324C18.4856 6.91156 17.762 5.81901 16.8473 4.89862C15.9326 3.97824 14.8448 3.24824 13.6467 2.75074C12.4486 2.25324 11.164 1.99809 9.86684 2.00001ZM110.799 19.7107C110.146 19.5015 109.415 19.8153 109.155 20.4681C107.953 23.4724 106.466 24.9872 104.639 24.9872C103.699 24.9872 103.229 24.1769 103.229 22.584C103.229 21.6956 103.491 19.9452 104.012 17.3593L104.404 15.5318H108.111C108.738 15.5318 109.311 15.0871 109.415 14.4596C109.456 14.2648 109.453 14.0634 109.407 13.8698C109.36 13.6763 109.272 13.4955 109.147 13.3406C109.022 13.1857 108.864 13.0605 108.685 12.9742C108.506 12.8878 108.31 12.8424 108.111 12.8413H105.004L105.657 9.81064C105.7 9.60853 105.697 9.39928 105.649 9.19829C105.601 8.99731 105.508 8.8097 105.378 8.64927C105.248 8.48884 105.083 8.35967 104.897 8.27126C104.71 8.18286 104.506 8.13747 104.299 8.13843C103.647 8.13843 103.099 8.58318 102.942 9.23599L102.16 12.8402H93.4941C91.2755 12.8402 89.4484 13.7539 87.9865 15.6089C86.5246 17.4374 85.7942 19.605 85.7942 22.0357C85.7884 22.6614 85.8672 23.285 86.0285 23.8896C85.3246 24.6217 84.5678 24.9872 83.7582 24.9872C83.2104 24.9872 82.8188 24.8297 82.5834 24.5171C82.3491 24.2033 82.2182 23.6804 82.2182 22.9495C82.2182 21.9036 82.4272 20.3624 82.8705 18.3258L85.142 7.82468C85.185 7.62264 85.1823 7.41352 85.134 7.21267C85.0857 7.01183 84.993 6.82436 84.8628 6.66406C84.7326 6.50377 84.5682 6.3747 84.3816 6.28636C84.195 6.19802 83.991 6.15264 83.7846 6.15357C83.4676 6.15509 83.1605 6.26446 82.9139 6.46372C82.6672 6.66297 82.4956 6.94026 82.4272 7.25003L81.0687 13.6505C80.1494 13.1162 79.1046 12.8366 78.0416 12.8402C75.7976 12.8402 73.9166 13.7022 72.4031 15.4526C70.9159 17.2029 70.1591 19.397 70.1591 22.0357C70.1591 22.8713 70.2636 23.6023 70.4726 24.2815C69.872 24.778 69.245 25.0136 68.5663 25.0136C68.0185 25.0136 67.6269 24.8561 67.3398 24.5424C67.0791 24.2298 66.9482 23.7068 66.9482 22.9759C66.9482 22.3231 67.0791 21.3037 67.3662 19.867C67.4035 19.6737 67.3998 19.4747 67.3556 19.2828C67.3114 19.0909 67.2275 18.9104 67.1094 18.7529C66.9913 18.5954 66.8416 18.4644 66.6698 18.3683C66.4981 18.2722 66.3082 18.2131 66.1123 18.1948C65.7807 18.1602 65.4476 18.2434 65.1711 18.4297C64.8946 18.6161 64.6924 18.8938 64.5998 19.2142C64.0773 21.0163 63.425 22.4012 62.6935 23.3414C61.8069 24.4642 60.8411 25.0389 59.8226 25.0389C59.2231 25.0389 58.727 24.7527 58.3354 24.1769C57.9702 23.6023 57.7876 22.8449 57.7876 21.9312C57.7876 20.0762 58.2309 18.535 59.1439 17.3593C60.058 16.1582 61.2327 15.5571 62.6935 15.5571C63.425 15.5571 64.1565 15.7135 64.7824 15.9755C65.174 16.1318 65.6437 16.1318 66.0089 15.8962C66.9482 15.3216 66.8448 13.9114 65.8527 13.5195C65.3038 13.285 65.0167 13.2332 64.7824 13.1804C64.1554 13.023 63.3722 12.8931 62.7463 12.8931C60.5276 12.9184 58.6489 13.7804 57.1606 15.5054C56.3506 16.4398 55.7461 17.5343 55.3863 18.7177C54.0806 22.9495 52.3581 25.0653 50.2967 25.0653C49.5916 25.0653 49.0691 24.8297 48.7567 24.3861C48.4168 23.9424 48.2606 23.3678 48.2606 22.6885C48.2606 22.453 48.2606 22.2702 48.287 22.1392C49.5916 21.6174 50.6619 20.8072 51.444 19.736C52.2283 18.666 52.6452 17.4638 52.6452 16.1835C52.6452 14.0159 51.4704 12.9448 49.0955 12.9448C47.4246 12.9448 45.9639 13.5459 44.6582 14.7469L46.1212 7.90394C46.1643 7.70527 46.1624 7.49943 46.1154 7.30163C46.0684 7.10383 45.9776 6.91911 45.8498 6.76112C45.7219 6.60314 45.5602 6.47592 45.3766 6.38886C45.193 6.30181 44.9922 6.25714 44.7891 6.25815C44.4739 6.25538 44.1678 6.36373 43.9244 6.56421C43.6811 6.7647 43.516 7.04451 43.4581 7.35461L39.4388 26.164C39.3958 26.3625 39.3979 26.5681 39.4449 26.7657C39.4919 26.9633 39.5826 27.1478 39.7104 27.3056C39.8381 27.4634 39.9996 27.5906 40.1829 27.6776C40.3663 27.7647 40.5668 27.8095 40.7698 27.8087C41.422 27.8087 41.9698 27.365 42.1007 26.7386L43.3536 20.9921C43.5626 20.26 43.8486 19.5026 44.2413 18.7706C44.6329 18.0396 45.2324 17.3339 46.0673 16.6811C46.8299 16.0277 47.8045 15.675 48.8084 15.6893C49.4871 15.6893 49.8259 16.0283 49.8259 16.734C49.8259 17.5178 49.3826 18.3005 48.5213 19.0326C47.66 19.7636 46.7207 20.2336 45.7285 20.391C45.6504 21.2266 45.5987 21.8013 45.5987 22.1667C45.5987 23.9171 45.9892 25.302 46.7724 26.3203C47.5555 27.3386 48.7039 27.8351 50.2439 27.8351C52.0446 27.8351 53.611 27.0513 54.9419 25.5101C55.1245 25.3009 55.2818 25.0917 55.4644 24.8572C55.6734 25.3802 55.9341 25.8502 56.2729 26.2421C57.1342 27.2869 58.2837 27.8098 59.7445 27.8098C61.5979 27.8098 63.1643 26.9214 64.4425 25.1193C64.9914 26.9214 66.3223 27.8098 68.4882 27.8098C69.7147 27.8098 70.8114 27.4168 71.8289 26.634C72.6385 27.4168 73.6823 27.8087 74.9352 27.8087C76.7887 27.8087 78.354 26.9214 79.6332 25.1182C80.181 26.9214 81.5131 27.8098 83.679 27.8098C85.0628 27.8098 86.2892 27.3386 87.3595 26.3985C88.2725 27.3386 89.4209 27.8098 90.8828 27.8098C92.9441 27.8098 94.6931 26.9467 96.155 25.2227C97.1208 23.9689 97.5124 23.2115 97.7214 22.6632C98.2569 21.3626 98.5317 19.9692 98.5298 18.5625C98.5298 17.4649 98.3472 16.4984 98.0085 15.6628H101.583L101.245 17.2305C100.67 19.921 100.383 21.7495 100.383 22.7161C100.383 26.1111 101.767 27.8098 104.508 27.8098C107.561 27.8098 109.91 25.7456 111.58 21.5921C111.894 20.783 111.528 19.9727 110.798 19.7118L110.799 19.7107ZM80.104 18.0385C79.609 20.4164 78.8775 22.1667 77.9646 23.2896C77.0516 24.4125 76.0583 24.9872 75.0144 24.9872C74.4138 24.9872 73.9188 24.6998 73.5272 24.1252C73.162 23.5505 72.9783 22.7931 72.9783 21.8794C72.9783 20.0234 73.4227 18.4832 74.3357 17.3075C75.2487 16.1054 76.4246 15.5054 77.8854 15.5054C78.6686 15.5054 79.5034 15.8445 80.4175 16.5501L80.104 18.0385ZM95.1903 21.3301C95.1903 21.3301 94.3818 23.0805 93.6239 23.8632C92.8671 24.6217 91.9805 25.0125 90.9884 25.0125C90.258 25.0125 89.6574 24.7516 89.2394 24.2298C88.8214 23.7068 88.6124 22.9748 88.6124 22.0611C88.6124 20.2336 89.0568 18.6924 89.9698 17.4374C90.8839 16.1835 92.0058 15.5571 93.3896 15.5571C94.956 15.5571 95.7128 16.4973 95.7128 18.404C95.7128 19.3441 95.5555 20.3118 95.1903 21.3301ZM38.6556 6.15357C38.0033 6.15357 37.4544 6.59722 37.3246 7.25003L33.3053 26.0583C33.2621 26.2569 33.2641 26.4626 33.311 26.6603C33.3579 26.8581 33.4486 27.0427 33.5763 27.2007C33.7041 27.3586 33.8656 27.4859 34.0491 27.573C34.2325 27.6601 34.4332 27.7049 34.6363 27.7041C35.2885 27.7041 35.8363 27.2593 35.9672 26.6329L40.013 7.82358C40.056 7.62154 40.0533 7.41242 40.005 7.21157C39.9567 7.01072 39.864 6.82326 39.7338 6.66296C39.6036 6.50266 39.4392 6.3736 39.2526 6.28526C39.066 6.19692 38.862 6.15154 38.6556 6.15247V6.15357ZM113.694 24.7251C113.265 24.6359 112.818 24.7205 112.451 24.9605C112.085 25.2005 111.828 25.5763 111.737 26.0054C111.691 26.2183 111.688 26.4382 111.727 26.6524C111.767 26.8665 111.848 27.0707 111.967 27.253C112.086 27.4353 112.24 27.5922 112.421 27.7144C112.601 27.8366 112.803 27.9218 113.017 27.965C113.93 28.1477 114.791 27.5995 114.973 26.6847C115.13 25.771 114.582 24.909 113.694 24.7251Z" fill="#5C6D8A"/>
</svg>
