<svg width="134" height="30" viewBox="0 0 134 30" fill="none" xmlns="http://www.w3.org/2000/svg">
<g clip-path="url(#clip0_10_100)">
<path fill-rule="evenodd" clip-rule="evenodd" d="M46.2821 14.9906L33.1531 1.9075V11.4889L20.1172 21.0821L33.1531 21.0911V28.0736L46.2821 14.9906Z" fill="#5C6D8A"/>
<path fill-rule="evenodd" clip-rule="evenodd" d="M-0.00177002 14.9858L13.1272 28.0688V18.5645L26.1632 8.89412L13.1272 8.88516V1.90274L-0.00177002 14.9858Z" fill="#5C6D8A"/>
<path d="M65.8429 21.5241H55.7943V18.6384L61.5469 12.226H55.9425V9.38965H65.7441V12.1273L59.8187 18.6631H65.8429V21.5241Z" fill="#5C6D8A" fill-opacity="0.9"/>
<path d="M79.5565 9.38965L74.6928 14.495L79.6553 21.5241H75.6309L72.4213 16.8873L71.0633 18.3178V21.5241H67.7797V3.66772H71.0633V13.9031L75.2605 9.38965H79.5565Z" fill="#5C6D8A" fill-opacity="0.9"/>
<path d="M93.8385 8.2058L90.7771 9.14301C90.6619 8.5182 90.3491 7.95095 89.8389 7.44124C89.3287 6.93152 88.5797 6.67667 87.5921 6.67667C86.7857 6.67667 86.1272 6.89864 85.617 7.34258C85.1068 7.77008 84.8516 8.28801 84.8516 8.89638C84.8516 9.96512 85.4853 10.6228 86.7527 10.8694L89.197 11.3381C90.7441 11.634 91.9458 12.2505 92.8017 13.1878C93.6576 14.125 94.0854 15.2267 94.0854 16.4927C94.0854 17.9397 93.5093 19.2057 92.3572 20.2909C91.2214 21.3597 89.6908 21.894 87.765 21.894C86.6622 21.894 85.6663 21.7295 84.7776 21.4008C83.8887 21.0719 83.1727 20.6362 82.6296 20.0935C82.0863 19.5345 81.6584 18.9509 81.3457 18.3424C81.0494 17.7177 80.8683 17.0764 80.8026 16.4188L83.9628 15.5802C84.0451 16.5173 84.4072 17.2984 85.0491 17.9232C85.7076 18.548 86.621 18.8604 87.7897 18.8604C88.6784 18.8604 89.3698 18.6631 89.8636 18.2684C90.3738 17.8739 90.629 17.3559 90.629 16.7147C90.629 16.205 90.4397 15.7692 90.0611 15.4075C89.699 15.0293 89.1804 14.7745 88.5057 14.643L86.0614 14.1497C84.6459 13.8538 83.5265 13.27 82.7037 12.3985C81.8807 11.5271 81.4691 10.4419 81.4691 9.14301C81.4691 7.59743 82.0617 6.29849 83.2468 5.24619C84.4483 4.19388 85.8886 3.66772 87.5674 3.66772C88.5714 3.66772 89.4685 3.80749 90.2585 4.08701C91.0487 4.36652 91.6823 4.7447 92.1597 5.22152C92.637 5.68191 93.0073 6.15874 93.2708 6.652C93.5341 7.14527 93.7233 7.6632 93.8385 8.2058Z" fill="#5C6D8A" fill-opacity="0.9"/>
<path d="M99.6172 26.3088H96.136L99 19.9949L93.8399 9.38965H97.5187L100.753 16.4927L103.74 9.38965H107.246L99.6172 26.3088Z" fill="#5C6D8A" fill-opacity="0.9"/>
<path d="M111.779 14.5443V21.5241H108.495V9.38965H111.68V10.8941C112.026 10.3022 112.519 9.85003 113.161 9.53763C113.803 9.22523 114.478 9.06903 115.186 9.06903C116.618 9.06903 117.704 9.52119 118.444 10.4255C119.202 11.3134 119.58 12.4643 119.58 13.8784V21.5241H116.297V14.4457C116.297 13.7222 116.108 13.1384 115.729 12.6946C115.367 12.2506 114.807 12.0287 114.05 12.0287C113.359 12.0287 112.808 12.267 112.396 12.7439C111.984 13.2207 111.779 13.8209 111.779 14.5443Z" fill="#5C6D8A" fill-opacity="0.9"/>
<path d="M127.629 12.0533C126.757 12.0533 126.024 12.3575 125.431 12.9659C124.839 13.5742 124.542 14.4046 124.542 15.4569C124.542 16.5091 124.839 17.3477 125.431 17.9726C126.04 18.5809 126.781 18.8851 127.653 18.8851C128.427 18.8851 129.044 18.6878 129.506 18.2931C129.967 17.8821 130.279 17.397 130.443 16.838L133.332 17.7999C133.036 18.918 132.394 19.8798 131.407 20.6856C130.419 21.4912 129.168 21.894 127.653 21.894C125.843 21.894 124.32 21.2857 123.086 20.0689C121.868 18.8358 121.259 17.2985 121.259 15.4569C121.259 13.5989 121.86 12.0616 123.061 10.8448C124.279 9.62808 125.777 9.01971 127.554 9.01971C129.102 9.01971 130.369 9.42255 131.357 10.2282C132.344 11.0175 132.978 11.9793 133.258 13.1138L130.32 14.1003C129.924 12.7357 129.028 12.0533 127.629 12.0533Z" fill="#5C6D8A" fill-opacity="0.9"/>
</g>
<defs>
<clipPath id="clip0_10_100">
<rect width="133.333" height="30" fill="white"/>
</clipPath>
</defs>
</svg>
