<svg width="131" height="30" viewBox="0 0 131 30" fill="none" xmlns="http://www.w3.org/2000/svg">
<path d="M44.6777 15.7594H49.617C50.3122 15.7594 50.8746 16.3722 50.8746 17.1198C50.8746 17.8737 50.3122 18.4802 49.618 18.4802H43.6592C43.5658 18.4803 43.476 18.5171 43.4079 18.5834L41.6111 20.2524C41.3354 20.5104 41.5037 20.9937 41.8624 20.9937H49.318C49.318 20.9937 49.3241 20.9937 49.3241 20.9863C49.3241 20.98 49.3302 20.98 49.3302 20.98C49.4255 20.9863 49.5157 20.9937 49.6119 20.9937C51.5881 20.9937 53.1923 19.2594 53.1923 17.1198C53.1923 15.0897 51.7492 13.4207 49.9048 13.2596C49.9048 13.2596 49.8987 13.2596 49.8987 13.2533C49.8987 13.2459 49.8987 13.2459 49.8926 13.2459H44.5753C43.8811 13.2459 43.3187 12.6352 43.3187 11.8876C43.3187 11.1326 43.8811 10.5271 44.5753 10.5271H50.522C50.62 10.5268 50.7142 10.4876 50.7855 10.4176L52.4545 8.74656C52.718 8.48331 52.5447 8.01264 52.191 8.01264H44.5804C42.6042 8.01264 41 9.74583 41 11.8855C41 14.0251 42.6042 15.7594 44.5804 15.7594H44.6766H44.6777ZM73.4321 8.00632C73.3795 8.00741 73.3277 8.01931 73.2797 8.04133C73.2316 8.06336 73.1882 8.09507 73.152 8.13463C73.1158 8.17419 73.0876 8.22082 73.0688 8.27182C73.0501 8.32281 73.0413 8.37716 73.0429 8.43172V20.5746C73.0429 20.8063 73.2162 21 73.4321 21H82.4737C82.528 20.9987 82.5815 20.9859 82.6309 20.9626C82.6804 20.9393 82.7248 20.9058 82.7615 20.8642L83.8934 19.5564C84.1265 19.2858 83.9532 18.8404 83.6056 18.8404H75.7132C75.6607 18.8393 75.6089 18.8274 75.5608 18.8053C75.5128 18.7833 75.4694 18.7516 75.4332 18.712C75.397 18.6725 75.3687 18.6258 75.35 18.5749C75.3313 18.5239 75.3225 18.4695 75.3241 18.415V8.4254C75.3263 8.31552 75.2866 8.20918 75.2137 8.12952C75.1409 8.04985 75.0407 8.00331 74.9349 8H73.4321V8.00632Z" fill="#5C6D8A"/>
<path fill-rule="evenodd" clip-rule="evenodd" d="M59.123 8C59.123 8.00632 59.123 8.00632 59.123 8C57.976 8.05792 57.0543 9.05622 57 10.3009V18.5706C57 19.8659 57.9397 20.9231 59.123 20.9747H67.2677C68.4449 20.9158 69.3907 19.8585 69.3907 18.5695V10.3062C69.3434 9.06359 68.4218 8.05792 67.2738 8.00632H59.124V8H59.123ZM60.6453 10.3062C60.6392 10.3062 60.6392 10.3062 60.6453 10.3062C59.9259 10.3388 59.3494 10.9707 59.3192 11.7573V16.9584C59.3192 17.7703 59.9078 18.4411 60.6453 18.4737H65.7525C66.489 18.4421 67.0776 17.7703 67.0776 16.9584V11.7563C67.0474 10.9707 66.4719 10.3452 65.7525 10.3072H60.6453V10.3062ZM96.9349 20.5682C96.9349 20.7999 97.107 20.9937 97.3213 20.9937H98.8426C98.8948 20.9927 98.9463 20.9809 98.9942 20.959C99.042 20.937 99.0852 20.9053 99.1212 20.8657C99.1573 20.8261 99.1855 20.7795 99.2041 20.7284C99.2228 20.6773 99.2315 20.6229 99.2299 20.5682V10.4168C99.2299 9.12151 98.2962 8.06318 97.1311 8.01264H89.2178C88.0044 8.01264 87.0244 9.08886 87.0244 10.4231V20.5746C87.0244 20.8062 87.1954 21 87.4107 21H88.932C88.9842 20.9989 89.0356 20.987 89.0833 20.965C89.1311 20.943 89.1741 20.9112 89.2101 20.8717C89.246 20.8321 89.2741 20.7855 89.2927 20.7345C89.3113 20.6835 89.32 20.6291 89.3184 20.5746V16.3908C89.3184 16.1591 89.4915 15.9653 89.7048 15.9653H96.5667C96.78 15.9653 96.952 16.1528 96.952 16.3908V20.5682H96.9349ZM89.3073 13.6518V11.5635C89.3073 10.7516 89.907 10.0945 90.6455 10.0945H95.6028C96.3403 10.0945 96.941 10.7516 96.941 11.5635V13.6518C96.941 13.8834 96.7679 14.0772 96.5536 14.0772H89.6937C89.6416 14.0761 89.5901 14.0642 89.5424 14.0422C89.4947 14.0202 89.4516 13.9884 89.4157 13.9489C89.3797 13.9093 89.3517 13.8627 89.3331 13.8117C89.3145 13.7607 89.3057 13.7063 89.3073 13.6518ZM129.068 20.9937C129.016 20.9926 128.965 20.9807 128.917 20.9587C128.869 20.9366 128.826 20.9049 128.79 20.8654C128.754 20.8258 128.726 20.7792 128.708 20.7282C128.689 20.6772 128.68 20.6228 128.682 20.5682V16.3844C128.684 16.2746 128.645 16.1682 128.572 16.0885C128.5 16.0089 128.4 15.9623 128.295 15.959H121.357C121.305 15.9601 121.254 15.972 121.206 15.994C121.158 16.0161 121.115 16.0478 121.079 16.0873C121.043 16.1269 121.015 16.1735 120.996 16.2245C120.978 16.2755 120.969 16.3299 120.971 16.3844V20.5682C120.971 20.7999 120.799 20.9937 120.584 20.9937H119.051C118.999 20.9926 118.947 20.9807 118.9 20.9587C118.852 20.9366 118.809 20.9049 118.773 20.8654C118.737 20.8258 118.709 20.7792 118.69 20.7282C118.672 20.6772 118.663 20.6228 118.665 20.5682V10.4168C118.665 9.08886 119.657 8.00527 120.882 8.00527H128.878C130.055 8.06424 131 9.12151 131 10.4104V20.5619C131 20.7936 130.828 20.9874 130.614 20.9874H129.068V20.9937ZM120.971 11.5635V13.6518C120.971 13.8834 121.144 14.0772 121.357 14.0772H128.295C128.348 14.0761 128.399 14.0642 128.447 14.0422C128.494 14.0202 128.538 13.9884 128.573 13.9489C128.609 13.9093 128.638 13.8627 128.656 13.8117C128.675 13.7607 128.683 13.7063 128.682 13.6518V11.5635C128.682 10.7516 128.075 10.0945 127.333 10.0945H122.32C121.571 10.0945 120.971 10.7516 120.971 11.5635Z" fill="#5C6D8A"/>
<path d="M104.839 8.33938C104.953 8.33938 105.06 8.38731 105.132 8.47919L112.007 16.8478C112.24 17.1284 112.689 16.9577 112.689 16.5842V8.74183C112.689 8.52213 112.862 8.33838 113.078 8.33838H114.611C114.827 8.33838 115 8.51614 115 8.74183V20.2582C115 20.4779 114.827 20.6616 114.611 20.6616H112.707C112.701 20.6616 112.695 20.6556 112.695 20.6496C112.695 20.6436 112.695 20.6436 112.689 20.6367L105.696 12.33C105.462 12.0493 105.013 12.2261 105.013 12.5936V20.2642C105.013 20.4839 104.839 20.6676 104.624 20.6676H103.078C103.026 20.6666 102.974 20.6553 102.926 20.6344C102.878 20.6135 102.834 20.5834 102.798 20.5459C102.762 20.5084 102.734 20.4642 102.715 20.4158C102.696 20.3674 102.688 20.3159 102.689 20.2642V8.74183C102.689 8.52213 102.863 8.33838 103.078 8.33838H104.839V8.33938ZM5.07964 21.084C5.17236 20.9877 5.28391 20.9109 5.40755 20.8582C5.5312 20.8056 5.66439 20.7781 5.7991 20.7775H30.737C31.192 20.7775 31.419 21.3397 31.0957 21.6643L26.1679 26.6944C26.0752 26.7904 25.9638 26.867 25.8404 26.9195C25.7169 26.972 25.5839 26.9994 25.4495 27H0.511571C0.055575 27 -0.17141 26.4378 0.151841 26.1142L5.07964 21.083V21.084ZM5.07964 2.30558C5.17245 2.20946 5.28403 2.13284 5.40767 2.08032C5.53132 2.0278 5.66446 2.00048 5.7991 2H30.737C31.192 2 31.419 2.56224 31.0957 2.88679L26.1679 7.90996C26.0753 8.00615 25.9639 8.08289 25.8405 8.13557C25.717 8.18826 25.584 8.2158 25.4495 8.21655H0.511571C0.055575 8.21655 -0.17141 7.65431 0.151841 7.32975L5.07964 2.30558ZM26.1679 11.6329C26.0752 11.5369 25.9638 11.4603 25.8404 11.4078C25.7169 11.3553 25.5839 11.3279 25.4495 11.3273H0.511571C0.055575 11.3273 -0.17141 11.8905 0.151841 12.2141L5.07964 17.2383C5.27217 17.434 5.52854 17.5439 5.7991 17.5439H30.737C31.192 17.5439 31.419 16.9816 31.0957 16.6581L26.1679 11.6329Z" fill="#5C6D8A"/>
</svg>
