<svg width="27" height="27" viewBox="0 0 27 27" fill="none" xmlns="http://www.w3.org/2000/svg">
<g clip-path="url(#clip0_17_59)">
<path d="M17.6559 12.2867L11.6909 9.02292C11.3479 8.83526 10.9425 8.84227 10.6064 9.04146C10.27 9.24086 10.0693 9.59311 10.0693 9.98409V16.4556C10.0693 16.8447 10.2687 17.1963 10.6029 17.3959C10.7773 17.5002 10.9708 17.5525 11.1646 17.5525C11.3422 17.5525 11.5201 17.5086 11.6839 17.4205L17.6491 14.2129C18.0032 14.0224 18.2242 13.6543 18.2259 13.252C18.2273 12.8497 18.0089 12.4799 17.6559 12.2867ZM11.6516 15.6415V10.8048L16.1097 13.2441L11.6516 15.6415Z" fill="#5C93FE"/>
<path d="M26.8013 8.09615L26.8001 8.08379C26.7772 7.86647 26.5496 5.93343 25.6099 4.95023C24.5237 3.79378 23.2922 3.6533 22.7 3.58594C22.651 3.58037 22.6061 3.57522 22.5659 3.56987L22.5187 3.56492C18.9493 3.30537 13.5587 3.26994 13.5047 3.26974L13.4999 3.26953L13.4952 3.26974C13.4412 3.26994 8.05061 3.30537 4.44903 3.56492L4.40145 3.56987C4.36313 3.57502 4.32091 3.57976 4.27497 3.58511C3.68954 3.65268 2.4713 3.79337 1.38201 4.99163C0.486967 5.96433 0.22824 7.85596 0.201667 8.06855L0.198577 8.09615C0.190543 8.18658 0 10.3394 0 12.5007V14.5211C0 16.6823 0.190543 18.8352 0.198577 18.9258L0.200019 18.9394C0.222884 19.1532 0.4503 21.0508 1.38571 22.0345C2.40703 23.1522 3.6984 23.3001 4.393 23.3796C4.5028 23.3921 4.59735 23.4029 4.66182 23.4142L4.72424 23.4228C6.7852 23.6189 13.247 23.7156 13.521 23.7195L13.5292 23.7197L13.5374 23.7195C13.5914 23.7193 18.9818 23.6838 22.5513 23.4243L22.5984 23.4193C22.6436 23.4134 22.6942 23.408 22.7499 23.4022C23.332 23.3404 24.5436 23.2121 25.6179 22.0301C26.5129 21.0572 26.7719 19.1656 26.7982 18.9532L26.8013 18.9256C26.8094 18.835 27.0001 16.6823 27.0001 14.5211V12.5007C26.9999 10.3394 26.8094 8.18679 26.8013 8.09615ZM25.4177 14.5211C25.4177 16.5215 25.243 18.5816 25.2265 18.7707C25.1593 19.2917 24.8864 20.4885 24.4503 20.9625C23.778 21.7022 23.0873 21.7755 22.583 21.8289C22.522 21.8353 22.4656 21.8414 22.4145 21.8478C18.9621 22.0975 13.7749 22.1358 13.536 22.1372C13.268 22.1333 6.90076 22.0359 4.90263 21.8503C4.80025 21.8336 4.68963 21.8208 4.57304 21.8077C3.98164 21.7399 3.17208 21.6472 2.54957 20.9625L2.53495 20.9468C2.10648 20.5004 1.84137 19.3813 1.77401 18.7769C1.76144 18.6339 1.58223 16.5495 1.58223 14.5211V12.5007C1.58223 10.5026 1.7565 8.44469 1.77339 8.25167C1.85352 7.63802 2.13161 6.51371 2.54957 6.05929C3.24253 5.29712 3.97319 5.21266 4.45645 5.15684C4.50259 5.15148 4.54564 5.14654 4.5854 5.14139C8.0881 4.89049 13.3125 4.8532 13.4999 4.85176C13.6874 4.853 18.9099 4.89049 22.3815 5.14139C22.4242 5.14674 22.4707 5.1521 22.5208 5.15787C23.0178 5.21452 23.7691 5.30021 24.4586 6.0356L24.4649 6.0424C24.8934 6.48879 25.1585 7.62752 25.2259 8.24405C25.2378 8.37898 25.4177 10.468 25.4177 12.5007V14.5211Z" fill="#5C93FE"/>
</g>
<defs>
<clipPath id="clip0_17_59">
<rect width="27" height="27" fill="white"/>
</clipPath>
</defs>
</svg>
