<svg width="27" height="27" viewBox="0 0 27 27" fill="none" xmlns="http://www.w3.org/2000/svg">
<path d="M0.532132 22.0443C3.03188 23.6306 5.94113 24.4687 8.94488 24.4687C13.3436 24.4687 17.3745 22.7789 20.2961 19.7111C23.0918 16.7748 24.6296 12.8294 24.5531 8.82556C25.6129 7.91881 26.8594 6.18744 26.8594 4.49994C26.8594 3.85306 26.1574 3.44244 25.5881 3.77206C24.5925 4.35706 23.6846 4.51006 22.7509 4.24794C20.844 2.38944 18.0056 1.99794 15.6139 3.28719C13.5236 4.41219 12.3615 6.47094 12.4661 8.72094C8.93476 8.29006 5.67226 6.51931 3.39751 3.76756C3.02401 3.31869 2.31526 3.37156 2.01826 3.88006C0.922507 5.75656 0.933757 7.93119 1.88663 9.68731C1.43326 9.76719 1.15313 10.1486 1.15313 10.5614C1.15313 12.3266 1.94738 13.9488 3.22651 15.0558C2.98801 15.2853 2.90926 15.6262 3.01051 15.9299C3.57301 17.6197 4.84651 18.9404 6.43838 19.6019C4.70701 20.4288 2.79226 20.7044 1.08788 20.4952C0.205882 20.3759 -0.229493 21.5617 0.532132 22.0443ZM9.17551 19.8911C9.80663 19.4062 9.47138 18.3959 8.67938 18.3791C7.28438 18.3498 6.01426 17.6624 5.22338 16.5813C5.60476 16.5566 5.99963 16.4981 6.37538 16.3968C7.23151 16.1651 7.19101 14.9298 6.32138 14.7554C4.74301 14.4382 3.50438 13.2884 3.03976 11.8079C3.46388 11.9126 3.89588 11.9711 4.32676 11.9789C5.18063 11.9834 5.50351 10.8888 4.80713 10.4309C3.23776 9.39706 2.56838 7.57119 3.01163 5.85444C5.75213 8.63094 9.47026 10.3038 13.4033 10.4928C13.9669 10.5277 14.3899 9.99781 14.2661 9.46119C13.7318 7.14481 15.0255 5.52144 16.4149 4.77331C17.7896 4.03081 19.9969 3.79906 21.6889 5.57431C22.1918 6.10419 23.8883 6.12444 24.7511 5.92306C24.3641 6.65206 23.769 7.34394 23.2121 7.73319C22.9748 7.89969 22.8386 8.17644 22.8533 8.46556C23.0344 12.1612 21.6574 15.8354 19.0755 18.5456C16.4745 21.2759 12.8779 22.7801 8.94601 22.7801C7.38226 22.7801 5.84888 22.5258 4.39988 22.0353C6.13238 21.7001 7.77826 20.9666 9.17551 19.8911Z" fill="#5C93FE"/>
</svg>
