<svg width="27" height="27" viewBox="0 0 27 27" fill="none" xmlns="http://www.w3.org/2000/svg">
<g clip-path="url(#clip0_17_53)">
<path d="M26.7612 4.17468C26.9915 3.95008 27.063 3.60831 26.9418 3.31015C26.8205 3.0121 26.5309 2.81714 26.209 2.81714H18.302C17.8651 2.81714 17.511 3.1713 17.511 3.60815V7.41283L14.5508 15.0869L9.12177 3.27777C8.99272 2.99707 8.71202 2.81719 8.40305 2.81719H0.997559C0.692068 2.81719 0.413842 2.99317 0.282902 3.26918C0.151963 3.54519 0.191672 3.87198 0.384943 4.1086L3.73263 8.20717V18.332L0.167203 22.9053C-0.0186329 23.1437 -0.0524357 23.4671 0.080244 23.7388C0.212924 24.0104 0.488777 24.1827 0.791051 24.1827H8.25629C8.55856 24.1827 8.83442 24.0104 8.9671 23.7388C9.09977 23.4672 9.06597 23.1437 8.88014 22.9053L5.31471 18.332V11.3L11.4866 23.7431C11.6206 24.0132 11.8958 24.1826 12.1951 24.1826C12.2073 24.1826 12.2195 24.1824 12.2318 24.1818C12.5452 24.1673 12.8204 23.969 12.9333 23.6763L17.511 11.8088V20.1759L15.3831 22.9052C15.1973 23.1437 15.1635 23.4671 15.2962 23.7388C15.4289 24.0103 15.7047 24.1826 16.007 24.1826H25.8834C26.1857 24.1826 26.4615 24.0103 26.5942 23.7387C26.7269 23.4671 26.6931 23.1437 26.5072 22.9052L24.3793 20.1759V6.49599L26.7612 4.17468ZM2.41073 22.6006L4.52364 19.8904L6.63655 22.6006H2.41073ZM12.1046 21.4287L5.23229 7.57367C5.23081 7.57062 5.22881 7.56787 5.22728 7.56487C5.218 7.54678 5.20787 7.52927 5.19732 7.51203C5.19311 7.50512 5.1892 7.49805 5.18477 7.4913C5.1717 7.47142 5.15762 7.45228 5.1429 7.43366C5.14058 7.43076 5.13868 7.4276 5.13636 7.4247L5.13415 7.42201C5.13415 7.42201 5.1341 7.4219 5.13404 7.4219L2.66507 4.39917H7.89616L13.7565 17.1464L12.1046 21.4287ZM22.9644 20.9342L24.2636 22.6007H17.6267L18.9258 20.9342C19.0341 20.7952 19.093 20.6241 19.093 20.4479V4.39922H24.2641L23.0362 5.59587C22.8835 5.74474 22.7973 5.94903 22.7973 6.16234V20.4479C22.7973 20.6241 22.8561 20.7953 22.9644 20.9342Z" fill="#5C93FE"/>
</g>
<defs>
<clipPath id="clip0_17_53">
<rect width="27" height="27" fill="white"/>
</clipPath>
</defs>
</svg>
