<svg width="27" height="27" viewBox="0 0 27 27" fill="none" xmlns="http://www.w3.org/2000/svg">
<g clip-path="url(#clip0_17_66)">
<path d="M25.5745 11.8477C24.75 9.22432 24.22 8.00961 23.9775 7.51892L23.9774 7.51876C23.7824 7.11706 23.2881 6.25269 23.2685 6.21834C23.1992 6.13383 21.483 4.07995 17.3464 2.56079L16.7998 4.04899C18.7557 4.76729 20.0944 5.59679 20.9237 6.22045C18.6331 5.53739 15.9094 5.11937 13.497 5.11937C11.0818 5.11937 8.35476 5.53861 6.06244 6.22314C6.83021 5.6535 8.22634 4.77173 10.1942 4.04899L9.64763 2.56079C5.51113 4.07995 3.79479 6.13383 3.72556 6.21834C3.72556 6.21834 3.31784 6.8765 2.97528 7.5992C2.76997 8.03234 2.2381 9.02133 1.41437 11.8649C0.381244 15.4321 0.0143218 20.4742 0 20.676C0.182378 21.0749 2.29629 24.4394 7.98472 24.4394L9.54347 22.1822C10.83 22.516 12.1573 22.6848 13.4971 22.6848C14.8398 22.6848 16.1697 22.5152 17.4587 22.1802L19.0078 24.4394C24.8094 24.4394 26.7032 21.1894 27 20.6669C26.9771 20.4267 26.4025 14.4825 25.5745 11.8477ZM24.0562 21.4571C22.8495 22.3111 21.4318 22.7772 19.8372 22.8453L19.0374 21.679C20.1404 21.2633 21.1986 20.7225 22.1931 20.0606L21.3146 18.7408C20.2054 19.4791 19.0078 20.0504 17.7543 20.446V20.4475C17.7543 20.4475 15.6787 21.0994 13.4972 21.0994C11.3157 21.0994 9.24583 20.4494 9.24583 20.4494V20.4478C7.99022 20.0521 6.79068 19.4802 5.67977 18.7408L4.80122 20.0605C5.7974 20.7236 6.85764 21.2652 7.96274 21.6811L7.15876 22.8453C5.56345 22.7776 4.14517 22.3114 2.93807 21.4571C2.26511 20.9807 1.83155 20.4979 1.62317 20.2379C1.71512 19.152 2.0914 15.2265 2.93744 12.3059C3.57241 10.1141 4.01073 9.08834 4.25002 8.5931C4.25002 8.5931 10.3861 6.70475 13.4972 6.70475C16.6057 6.70475 20.3984 7.47701 22.7236 8.58327C22.975 9.15604 23.4225 10.2881 24.062 12.3231C24.7367 14.4699 25.24 19.032 25.3655 20.2448C25.1541 20.5075 24.7225 20.9855 24.0562 21.4571Z" fill="#5C93FE"/>
<path d="M8.24628 13.3701H9.83171V16.0125H8.24628V13.3701Z" fill="#5C93FE"/>
<path d="M17.1625 13.3701H18.748V16.0125H17.1625V13.3701Z" fill="#5C93FE"/>
</g>
<defs>
<clipPath id="clip0_17_66">
<rect width="27" height="27" fill="white"/>
</clipPath>
</defs>
</svg>
