<svg width="27" height="27" viewBox="0 0 27 27" fill="none" xmlns="http://www.w3.org/2000/svg">
<g clip-path="url(#clip0_17_56)">
<path d="M26.583 2.68204C26.2533 2.2787 25.7593 2.05664 25.192 2.05664C24.8836 2.05664 24.5569 2.12153 24.2211 2.24986L1.36613 10.9743C0.153241 11.4372 -0.0101123 12.1318 0.000393328 12.5046C0.010899 12.8775 0.213391 13.5618 1.45059 13.9555C1.458 13.9577 1.46542 13.96 1.47284 13.962L6.21357 15.3187L8.77737 22.65C9.12694 23.6495 9.91157 24.2704 10.8254 24.2704C11.4015 24.2704 11.9682 24.029 12.4642 23.5725L15.3966 20.8725L19.6497 24.2972C19.6501 24.2976 19.6507 24.2978 19.6512 24.2982L19.6915 24.3307C19.6952 24.3336 19.6992 24.3367 19.7029 24.3396C20.1756 24.7063 20.6916 24.8999 21.1957 24.9001H21.1959C22.1808 24.9001 22.965 24.1711 23.1934 23.0431L26.9382 4.55225C27.0886 3.81006 26.9625 3.14594 26.583 2.68204ZM7.79952 15.061L16.9458 10.3885L11.2507 16.4399C11.1574 16.539 11.0913 16.6604 11.0588 16.7924L9.9606 21.2406L7.79952 15.061ZM11.3925 22.4086C11.3546 22.4434 11.3164 22.4745 11.2783 22.5032L12.2972 18.3767L14.1505 19.8691L11.3925 22.4086ZM25.3877 4.23811L21.6429 22.7291C21.6069 22.9061 21.4917 23.3179 21.1957 23.3179C21.0494 23.3179 20.8657 23.2381 20.6776 23.0933L15.8582 19.2128C15.8576 19.2122 15.8568 19.2116 15.8559 19.2112L12.9883 16.902L21.2241 8.15076C21.4878 7.87061 21.5117 7.44152 21.2808 7.13377C21.0496 6.82601 20.6309 6.72919 20.2883 6.90429L6.74257 13.8244L1.93735 12.4496L24.7853 3.72787C24.9784 3.65412 25.1131 3.63867 25.192 3.63867C25.2404 3.63867 25.3265 3.64444 25.3584 3.68378C25.4004 3.73508 25.454 3.90997 25.3877 4.23811Z" fill="#5C93FE"/>
</g>
<defs>
<clipPath id="clip0_17_56">
<rect width="27" height="27" fill="white"/>
</clipPath>
</defs>
</svg>
