<svg width="27" height="27" viewBox="0 0 27 27" fill="none" xmlns="http://www.w3.org/2000/svg">
<path fill-rule="evenodd" clip-rule="evenodd" d="M13.5 2C11.2255 1.99999 9.00214 2.67445 7.11097 3.93808C5.2198 5.20171 3.74581 6.99777 2.8754 9.09911C2.00499 11.2005 1.77724 13.5127 2.22097 15.7435C2.6647 17.9743 3.75996 20.0234 5.36826 21.6317C6.97657 23.24 9.02567 24.3353 11.2565 24.779C13.4872 25.2228 15.7995 24.995 17.9009 24.1246C20.0022 23.2542 21.7983 21.7802 23.0619 19.8891C24.3255 17.9979 25 15.7745 25 13.5C24.9986 10.4504 23.7866 7.52618 21.6302 5.36981C19.4739 3.21344 16.5496 2.00139 13.5 2ZM16.77 17.7073C16.5395 19.0967 16.0831 20.4389 15.419 21.6809C14.8627 22.6532 14.2457 23.3171 13.5 23.3171C12.7544 23.3171 12.1373 22.6533 11.581 21.6809C10.9169 20.4389 10.4605 19.0967 10.23 17.7073H16.77ZM8.52369 17.7073H4.62958C5.18897 18.8824 5.97561 19.935 6.94408 20.8044C7.91256 21.6738 9.04367 22.3427 10.2721 22.7725C10.2206 22.6907 10.1692 22.6065 10.1201 22.52C9.32023 21.0174 8.78046 19.3901 8.52369 17.7073ZM22.3704 17.7073H18.4763C18.2196 19.3901 17.6798 21.0174 16.8799 22.52C16.8308 22.6065 16.7794 22.6907 16.728 22.7725C17.9564 22.3427 19.0875 21.6738 20.056 20.8044C21.0244 19.935 21.811 18.8824 22.3704 17.7073ZM8.29464 10.9756H4.01017C3.57386 12.6303 3.57386 14.3697 4.01017 16.0244H8.29464C8.12949 14.3455 8.12949 12.6545 8.29464 10.9756ZM17.0155 10.9756C17.1039 11.8141 17.1476 12.6568 17.1463 13.5C17.1475 14.3432 17.1038 15.1858 17.0155 16.0244H9.9846C9.81002 14.346 9.81002 12.654 9.9846 10.9756H17.0155ZM22.9898 10.9756H18.7054C18.7889 11.8145 18.8303 12.657 18.8293 13.5C18.8302 14.343 18.7889 15.1855 18.7054 16.0244H22.9898C23.4261 14.3697 23.4261 12.6303 22.9898 10.9756ZM10.2721 4.22755C9.04347 4.65695 7.91217 5.32569 6.94365 6.19511C5.97513 7.06452 5.18861 8.11735 4.62958 9.29268H8.52369C8.78008 7.60977 9.31987 5.9825 10.1201 4.47999C10.1692 4.3935 10.2206 4.30937 10.2721 4.22755V4.22755ZM16.77 9.29268H10.23C10.461 7.90269 10.9173 6.55974 11.581 5.31679C12.1373 4.34443 12.7544 3.68293 13.5 3.68293C14.2457 3.68293 14.8627 4.34443 15.419 5.31678C16.0827 6.55973 16.5391 7.90269 16.77 9.29268ZM16.728 4.22755C16.7793 4.30937 16.8308 4.39351 16.8799 4.47999C17.6802 5.98248 18.2199 7.60976 18.4763 9.29268H22.3704C21.8118 8.11711 21.0254 7.06409 20.0568 6.19463C19.0883 5.32517 17.9568 4.65657 16.728 4.22755L16.728 4.22755Z" fill="#5C93FE"/>
</svg>
