<svg width="22" height="22" viewBox="0 0 22 22" fill="none" xmlns="http://www.w3.org/2000/svg">
<g clip-path="url(#clip0_41_57)">
<path d="M21.2667 14.6667C21.0723 14.6667 20.8857 14.7439 20.7482 14.8815C20.6107 15.019 20.5334 15.2055 20.5334 15.4V18.3333C20.5328 18.9166 20.3008 19.4758 19.8883 19.8882C19.4759 20.3007 18.9167 20.5327 18.3334 20.5333H15.4001C15.2056 20.5333 15.0191 20.6106 14.8815 20.7481C14.744 20.8856 14.6667 21.0722 14.6667 21.2667C14.6667 21.4612 14.744 21.6477 14.8815 21.7852C15.0191 21.9227 15.2056 22 15.4001 22H18.3334C19.3056 21.9991 20.2377 21.6125 20.9252 20.9251C21.6126 20.2376 21.9992 19.3055 22.0001 18.3333V15.4C22.0001 15.2055 21.9228 15.019 21.7853 14.8815C21.6478 14.7439 21.4612 14.6667 21.2667 14.6667Z" fill="#5C93FE"/>
<path d="M18.3334 0H15.4001C15.2056 0 15.0191 0.0772617 14.8815 0.214788C14.744 0.352315 14.6667 0.538841 14.6667 0.733333C14.6667 0.927825 14.744 1.11435 14.8815 1.25188C15.0191 1.38941 15.2056 1.46667 15.4001 1.46667H18.3334C18.9167 1.46733 19.4759 1.69932 19.8883 2.11176C20.3008 2.5242 20.5328 3.08339 20.5334 3.66667V6.6C20.5334 6.79449 20.6107 6.98102 20.7482 7.11855C20.8857 7.25607 21.0723 7.33333 21.2667 7.33333C21.4612 7.33333 21.6478 7.25607 21.7853 7.11855C21.9228 6.98102 22.0001 6.79449 22.0001 6.6V3.66667C21.9992 2.69448 21.6126 1.76237 20.9252 1.07493C20.2377 0.387488 19.3056 0.00089318 18.3334 0Z" fill="#5C93FE"/>
<path d="M0.733333 7.33333C0.927825 7.33333 1.11435 7.25607 1.25188 7.11855C1.38941 6.98102 1.46667 6.79449 1.46667 6.6V3.66667C1.46733 3.08339 1.69932 2.5242 2.11176 2.11176C2.5242 1.69932 3.08339 1.46733 3.66667 1.46667H6.6C6.79449 1.46667 6.98102 1.38941 7.11855 1.25188C7.25607 1.11435 7.33333 0.927825 7.33333 0.733333C7.33333 0.538841 7.25607 0.352315 7.11855 0.214788C6.98102 0.0772617 6.79449 0 6.6 0H3.66667C2.69448 0.00089318 1.76237 0.387488 1.07493 1.07493C0.387488 1.76237 0.00089318 2.69448 0 3.66667V6.6C0 6.79449 0.0772617 6.98102 0.214788 7.11855C0.352315 7.25607 0.538841 7.33333 0.733333 7.33333Z" fill="#5C93FE"/>
<path d="M3.66667 22H6.6C6.79449 22 6.98102 21.9227 7.11855 21.7852C7.25607 21.6477 7.33333 21.4612 7.33333 21.2667C7.33333 21.0722 7.25607 20.8856 7.11855 20.7481C6.98102 20.6106 6.79449 20.5333 6.6 20.5333H3.66667C3.08339 20.5327 2.5242 20.3007 2.11176 19.8882C1.69932 19.4758 1.46733 18.9166 1.46667 18.3333V15.4C1.46667 15.2055 1.38941 15.019 1.25188 14.8815C1.11435 14.7439 0.927825 14.6667 0.733333 14.6667C0.538841 14.6667 0.352315 14.7439 0.214788 14.8815C0.0772617 15.019 0 15.2055 0 15.4V18.3333C0.00089318 19.3055 0.387488 20.2376 1.07493 20.9251C1.76237 21.6125 2.69448 21.9991 3.66667 22Z" fill="#5C93FE"/>
<path d="M7.3334 8.06667C7.33301 8.59706 7.44829 9.12116 7.6712 9.60244C7.89411 10.0837 8.21928 10.5106 8.62407 10.8533C7.79376 11.288 7.09803 11.9412 6.61206 12.7426C6.12609 13.5439 5.86836 14.4628 5.86674 15.4V16.8667C5.86577 16.9632 5.88409 17.059 5.9206 17.1484C5.95711 17.2378 6.01109 17.3191 6.07938 17.3874C6.14767 17.4556 6.2289 17.5096 6.3183 17.5461C6.40771 17.5826 6.5035 17.601 6.60007 17.6H15.4001C15.4966 17.601 15.5924 17.5826 15.6818 17.5461C15.7712 17.5096 15.8525 17.4556 15.9208 17.3874C15.989 17.3191 16.043 17.2378 16.0795 17.1484C16.1161 17.059 16.1344 16.9632 16.1334 16.8667V15.4C16.1318 14.4628 15.874 13.5439 15.3881 12.7426C14.9021 11.9412 14.2064 11.288 13.3761 10.8533C13.8441 10.4543 14.2041 9.9438 14.423 9.36902C14.6419 8.79423 14.7126 8.1736 14.6286 7.56431C14.5446 6.95502 14.3086 6.37667 13.9424 5.88255C13.5761 5.38842 13.0914 4.99443 12.5329 4.73686C11.9744 4.47928 11.36 4.36643 10.7464 4.40868C10.1328 4.45093 9.5397 4.64694 9.02176 4.97864C8.50381 5.31033 8.07768 5.76705 7.78263 6.30671C7.48757 6.84637 7.33309 7.45161 7.3334 8.06667Z" fill="#5C93FE"/>
</g>
<defs>
<clipPath id="clip0_41_57">
<rect width="22" height="22" fill="white"/>
</clipPath>
</defs>
</svg>
