<svg width="22" height="22" viewBox="0 0 22 22" fill="none" xmlns="http://www.w3.org/2000/svg">
<g clip-path="url(#clip0_39_49)">
<path d="M7.33289 7.33324C11.5298 7.33324 14.6659 5.67411 14.6659 4.19059C14.6659 2.70721 11.5298 1.04801 7.33289 1.04801C3.13601 1.04801 0 2.70721 0 4.19059C0 5.67411 3.13594 7.33324 7.33289 7.33324Z" fill="#5C93FE"/>
<path d="M7.33289 19.9042C7.94547 19.9042 8.53506 19.8686 9.09588 19.8037C8.62314 19.1962 8.2322 18.522 7.93932 17.798C7.73809 17.8047 7.53615 17.8094 7.33282 17.8094C4.93469 17.8094 2.66362 17.3342 0.938142 16.4714C0.598397 16.3016 0.285752 16.1191 0 15.9259V16.7617C0 18.2451 3.13594 19.9042 7.33289 19.9042Z" fill="#5C93FE"/>
<path d="M7.33296 15.7139C7.35447 15.7139 7.37564 15.7136 7.39708 15.7135C7.35413 15.3701 7.3317 15.0204 7.3317 14.6656C7.3317 14.3109 7.35405 13.9614 7.39708 13.6183C7.37564 13.6183 7.3544 13.619 7.33296 13.619C4.93483 13.619 2.66383 13.1438 0.938282 12.2811C0.598467 12.1112 0.285752 11.9287 0 11.7355V12.5713C6.9849e-05 14.0547 3.13601 15.7139 7.33296 15.7139Z" fill="#5C93FE"/>
<path d="M7.33296 11.5235C7.54083 11.5235 7.74591 11.5193 7.9484 11.5113C8.27362 10.7134 8.71807 9.97646 9.25996 9.32289C8.63257 9.39204 7.9878 9.42871 7.33296 9.42871C4.93483 9.42871 2.66383 8.95352 0.938282 8.09075C0.598467 7.92081 0.285752 7.73836 0 7.54516V8.38097C6.9849e-05 9.86443 3.13601 11.5235 7.33296 11.5235Z" fill="#5C93FE"/>
<path d="M10.4762 11.1929C10.0228 11.8744 9.69896 12.649 9.53963 13.4813C9.46608 13.865 9.42725 14.2608 9.42725 14.6656C9.42725 14.9699 9.44946 15.2691 9.49144 15.562C9.5946 16.2815 9.82001 16.9619 10.1459 17.5816C10.4879 18.232 10.9403 18.8156 11.4784 19.307C12.5965 20.3282 14.0836 20.952 15.7137 20.952C19.18 20.952 22.0001 18.1319 22.0001 14.6656C22.0001 11.1992 19.18 8.37916 15.7137 8.37916C15.3554 8.37916 15.0041 8.40975 14.662 8.46759C12.9194 8.76228 11.4185 9.77642 10.4762 11.1929Z" fill="#5C93FE"/>
</g>
<defs>
<clipPath id="clip0_39_49">
<rect width="22" height="22" fill="white"/>
</clipPath>
</defs>
</svg>
