<svg width="22" height="22" viewBox="0 0 22 22" fill="none" xmlns="http://www.w3.org/2000/svg">
<path d="M4.84932 15.5298C9.63315 17.3967 13.7042 17.7604 18.3176 14.8544C18.2837 14.9052 17.3712 16.2571 14.9714 16.95C15.4784 17.6429 16.1713 18.4372 16.1713 18.4372C17.7092 18.4372 19.2133 17.9978 20.5145 17.1528C21.5285 16.4768 22.1031 15.3107 21.9848 14.0939C21.782 12.0152 21.2919 9.98726 20.5314 8.04382C19.5681 5.50886 17.2529 3.75126 14.5658 3.49774C14.3292 3.48084 14.1602 3.48084 14.0588 3.48084L13.7884 3.75121C16.8811 4.63001 18.419 5.99889 18.4528 6.04961C13.7039 3.64981 8.09319 3.61605 3.31051 5.94821C3.31051 5.94821 4.83151 4.44413 8.19454 3.64981L7.99175 3.44702C7.63684 3.44702 7.29883 3.48084 6.94397 3.53151C4.45969 3.954 2.38104 5.66088 1.48533 8.00995C0.707922 10.0379 0.200941 12.1673 0.0150559 14.3305C-0.0863404 15.4797 0.454457 16.612 1.40084 17.2711C2.65141 18.0992 4.13859 18.5386 5.64267 18.5386C5.64267 18.5386 6.25105 17.7443 6.85948 17.0345C4.57799 16.3585 3.64851 15.0065 3.63161 14.9558L4.06097 15.175C4.31765 15.3062 4.5808 15.425 4.84932 15.5298ZM7.50167 14.0601C6.40317 14.0263 5.54128 13.0968 5.57509 11.9814C5.60891 10.9336 6.4539 10.0887 7.50167 10.0548C8.60018 10.0887 9.46207 11.0181 9.42825 12.1335C9.37753 13.1814 8.54945 14.0264 7.50167 14.0601ZM14.3968 14.0601C13.2983 14.0263 12.4364 13.0968 12.4702 11.9814C12.504 10.9336 13.349 10.0887 14.3968 10.0548C15.4953 10.0887 16.3572 11.0181 16.3234 12.1335C16.2896 13.1814 15.4446 14.0264 14.3968 14.0601Z" fill="#5C93FE"/>
</svg>
