<svg width="22" height="22" viewBox="0 0 22 22" fill="none" xmlns="http://www.w3.org/2000/svg">
<g clip-path="url(#clip0_37_34)">
<path d="M19.8 0.733334H2.2C0.987067 0.733334 0 1.7204 0 2.93333V14.6667C0 15.8796 0.987067 16.8667 2.2 16.8667H4.4V20.5333C4.4 20.8157 4.56207 21.0716 4.81507 21.1941C4.917 21.2425 5.02553 21.2667 5.13333 21.2667C5.29687 21.2667 5.45893 21.2124 5.59167 21.1061L10.8907 16.8667H19.8C21.0129 16.8667 22 15.8796 22 14.6667V2.93333C22 1.7204 21.0129 0.733334 19.8 0.733334ZM11 11H5.13333C4.7278 11 4.4 10.6715 4.4 10.2667C4.4 9.86187 4.7278 9.53333 5.13333 9.53333H11C11.4055 9.53333 11.7333 9.86187 11.7333 10.2667C11.7333 10.6715 11.4055 11 11 11ZM16.8667 8.06667H5.13333C4.7278 8.06667 4.4 7.73813 4.4 7.33333C4.4 6.92853 4.7278 6.6 5.13333 6.6H16.8667C17.2722 6.6 17.6 6.92853 17.6 7.33333C17.6 7.73813 17.2722 8.06667 16.8667 8.06667Z" fill="#5C93FE"/>
</g>
<defs>
<clipPath id="clip0_37_34">
<rect width="22" height="22" fill="white"/>
</clipPath>
</defs>
</svg>
