<svg width="22" height="22" viewBox="0 0 22 22" fill="none" xmlns="http://www.w3.org/2000/svg">
<g clip-path="url(#clip0_43_75)">
<path d="M16.4743 2.7995L5.13883 7.33333H2.0625C0.925833 7.33333 0 8.25917 0 9.39583V11.9167C0 12.9965 0.847917 13.75 2.0625 13.75H2.84167L3.674 19.5763C3.72258 19.9155 4.01225 20.1667 4.35417 20.1667H7.10417C7.30033 20.1667 7.48642 20.0832 7.6175 19.9375C7.74767 19.7917 7.81 19.5974 7.788 19.4022L7.24717 14.5933L16.4734 18.2838C16.5568 18.3168 16.643 18.3333 16.7292 18.3333C16.8639 18.3333 16.9996 18.293 17.1151 18.2151C17.3039 18.0867 17.4167 17.8741 17.4167 17.6458V3.4375C17.4167 3.20925 17.3039 2.99658 17.1151 2.86825C16.9253 2.73992 16.6852 2.71425 16.4743 2.7995Z" fill="#5C93FE"/>
<path d="M19.4508 8.558L21.7424 6.72467C22.0385 6.48725 22.0871 6.05458 21.8497 5.75758C21.6114 5.46242 21.1796 5.41475 20.8826 5.65033L18.5909 7.48367C18.2949 7.72108 18.2463 8.15375 18.4837 8.45075C18.6194 8.61942 18.8192 8.70833 19.0209 8.70833C19.1721 8.70833 19.3234 8.65883 19.4508 8.558Z" fill="#5C93FE"/>
<path d="M19.4508 13.442C19.1556 13.2064 18.7229 13.2541 18.4837 13.5492C18.2463 13.8453 18.2949 14.2789 18.5909 14.5163L20.8826 16.3497C21.01 16.4505 21.1613 16.5 21.3125 16.5C21.5142 16.5 21.714 16.4111 21.8497 16.2424C22.0871 15.9463 22.0385 15.5127 21.7424 15.2753L19.4508 13.442Z" fill="#5C93FE"/>
<path d="M21.3124 10.3125H19.0208C18.6413 10.3125 18.3333 10.6205 18.3333 11C18.3333 11.3795 18.6413 11.6875 19.0208 11.6875H21.3124C21.6919 11.6875 21.9999 11.3795 21.9999 11C21.9999 10.6205 21.6919 10.3125 21.3124 10.3125Z" fill="#5C93FE"/>
</g>
<defs>
<clipPath id="clip0_43_75">
<rect width="22" height="22" fill="white"/>
</clipPath>
</defs>
</svg>
