<svg width="22" height="22" viewBox="0 0 22 22" fill="none" xmlns="http://www.w3.org/2000/svg">
<g clip-path="url(#clip0_43_64)">
<path d="M19.6745 5.49966C19.6495 5.49966 19.6495 5.49966 19.6245 5.49966H2.37557C1.9756 5.47466 1.65062 5.79964 1.62562 6.19961C1.62562 6.22461 1.62562 6.22461 1.62562 6.24961V21.2487C1.60062 21.6487 1.9256 21.9736 2.32558 21.9986C2.35057 21.9986 2.35057 21.9986 2.37557 21.9986H19.6245C20.0245 22.0236 20.3495 21.6987 20.3745 21.2987C20.3745 21.2737 20.3745 21.2737 20.3745 21.2487V6.24961C20.3995 5.84964 20.0745 5.52466 19.6745 5.49966ZM14.7498 12.3242C14.7248 12.3242 14.7248 12.3242 14.6998 12.3242H7.30027C6.90029 12.3492 6.57531 12.0243 6.55031 11.6243C6.55031 11.5993 6.55031 11.5993 6.55031 11.5743V9.6744C6.52531 9.27442 6.85029 8.94944 7.25027 8.92445C7.27527 8.92445 7.27527 8.92445 7.30027 8.92445H14.6998C15.0998 8.89945 15.4248 9.22443 15.4498 9.6244C15.4498 9.6494 15.4498 9.6494 15.4498 9.6744V11.5743C15.4748 11.9743 15.1498 12.2992 14.7498 12.3242Z" fill="#5C93FE"/>
<path d="M19.1245 2.74983H2.87549V4.24974H19.1245V2.74983Z" fill="#5C93FE"/>
<path d="M17.8746 0H4.12549V1.49991H17.8746V0Z" fill="#5C93FE"/>
</g>
<defs>
<clipPath id="clip0_43_64">
<rect width="22" height="22" fill="white"/>
</clipPath>
</defs>
</svg>
