<svg width="22" height="22" viewBox="0 0 22 22" fill="none" xmlns="http://www.w3.org/2000/svg">
<path d="M10.3554 1.51053C7.87082 1.65314 5.54088 2.61861 3.68115 4.27604L6.55731 7.1522C7.63969 6.2511 8.95393 5.70656 10.3554 5.57851V1.51053Z" fill="#5C93FE"/>
<path d="M5.64564 8.06338L2.76952 5.18727C1.11067 7.04649 0.144004 9.3766 0.000488281 11.8617H4.06864C4.19755 10.4601 4.74325 9.14568 5.64564 8.06338Z" fill="#5C93FE"/>
<path d="M17.9315 11.8617H21.9996C21.8561 9.3766 20.8895 7.04649 19.2306 5.18727L16.3545 8.06338C17.2569 9.14564 17.8026 10.4601 17.9315 11.8617Z" fill="#5C93FE"/>
<path d="M17.9306 13.1508C17.8402 14.1435 17.5569 14.9715 17.2218 15.6357C17.5487 16.1398 17.8212 16.5657 18.0013 16.8487C18.4915 17.6192 18.383 18.6082 17.7373 19.254C17.5805 19.4108 17.4014 19.5371 17.2073 19.6305L17.8771 20.3004C18.0032 20.4264 18.1684 20.4895 18.3337 20.4895C18.4989 20.4895 18.6641 20.4264 18.7902 20.3004C20.7205 18.3703 21.8461 15.8516 22.0001 13.1508H17.9306Z" fill="#5C93FE"/>
<path d="M4.06957 13.1508H0C0.154043 15.8516 1.27961 18.3703 3.20989 20.3004C3.33596 20.4265 3.50118 20.4895 3.66639 20.4895C3.83161 20.4895 3.99687 20.4264 4.12294 20.3004L6.07853 18.3447C6.33063 18.0926 6.33063 17.6837 6.07853 17.4316C5.56819 16.9213 4.2827 15.4925 4.06957 13.1508Z" fill="#5C93FE"/>
<path d="M18.3187 4.27604C16.459 2.61856 14.1291 1.65314 11.6445 1.51053V5.57851C13.0459 5.70656 14.3602 6.2511 15.4426 7.1522L18.3187 4.27604Z" fill="#5C93FE"/>
<path d="M12.4322 11.0849C11.6425 10.2953 10.3577 10.2953 9.56806 11.0849C8.77842 11.8746 8.77842 13.1594 9.56806 13.9491C10.5656 14.9466 15.4681 18.0769 16.0239 18.4305C16.2787 18.5927 16.6121 18.5561 16.8257 18.3425C17.0393 18.1289 17.0759 17.7956 16.9137 17.5407C16.56 16.985 13.4297 12.0825 12.4322 11.0849Z" fill="#5C93FE"/>
</svg>
