<svg width="22" height="22" viewBox="0 0 22 22" fill="none" xmlns="http://www.w3.org/2000/svg">
<g clip-path="url(#clip0_43_81)">
<path d="M20.2904 5.2641L11.3223 0.0863672C11.1229 -0.0287891 10.8772 -0.0287891 10.6778 0.0863672L1.70972 5.2641C1.5103 5.37921 1.38745 5.592 1.38745 5.82227V16.1777C1.38745 16.408 1.5103 16.6208 1.70972 16.7359L10.6778 21.9136C10.8772 22.0288 11.1229 22.0288 11.3223 21.9136L20.2904 16.7359C20.4899 16.6208 20.6127 16.408 20.6127 16.1777V5.82227C20.6127 5.592 20.4899 5.37921 20.2904 5.2641ZM8.58381 13.0711C8.58381 13.427 8.29524 13.7156 7.93928 13.7156H7.2489C6.98869 13.7156 6.75403 13.5592 6.65396 13.319L5.47717 10.4947V13.0711C5.44546 13.9254 4.21952 13.9247 4.18811 13.0711V8.92891C4.18811 8.57295 4.47669 8.28438 4.83264 8.28438H5.52302C5.78324 8.28438 6.01789 8.44082 6.11797 8.68102L7.29475 11.5054V8.92891C7.32646 8.07465 8.5524 8.07529 8.58381 8.92891V13.0711ZM13.0712 9.57344H11.0001V10.7006H12.3808C13.2351 10.7323 13.2344 11.9583 12.3808 11.9897H11.0001V13.0711C10.9684 13.9254 9.74242 13.9247 9.71101 13.0711V8.92891C9.71101 8.57295 9.99959 8.28438 10.3555 8.28438H13.0712C13.9254 8.31609 13.9248 9.54203 13.0712 9.57344ZM17.5585 9.57344H16.8223V13.0711C16.7906 13.9254 15.5647 13.9247 15.5333 13.0711V9.57344H14.7971C13.9428 9.54173 13.9435 8.31579 14.7971 8.28438H17.5586C18.4128 8.31609 18.4121 9.54203 17.5585 9.57344Z" fill="#5C93FE"/>
</g>
<defs>
<clipPath id="clip0_43_81">
<rect width="22" height="22" fill="white"/>
</clipPath>
</defs>
</svg>
