<svg width="22" height="22" viewBox="0 0 22 22" fill="none" xmlns="http://www.w3.org/2000/svg">
<path d="M22 18C22 18.2652 21.8946 18.5196 21.7071 18.7071C21.5196 18.8946 21.2652 19 21 19H8.99999C8.73478 19 8.48042 18.8946 8.29289 18.7071C8.10535 18.5196 7.99999 18.2652 7.99999 18C7.99999 16.4087 8.63214 14.8826 9.75735 13.7574C10.8826 12.6321 12.4087 12 14 12H16C17.5913 12 19.1174 12.6321 20.2426 13.7574C21.3678 14.8826 22 16.4087 22 18ZM15 3.00001C14.2089 3.00001 13.4355 3.2346 12.7777 3.67413C12.1199 4.11365 11.6072 4.73837 11.3045 5.46927C11.0017 6.20018 10.9225 7.00444 11.0769 7.78037C11.2312 8.55629 11.6122 9.26902 12.1716 9.82843C12.731 10.3878 13.4437 10.7688 14.2196 10.9231C14.9956 11.0775 15.7998 10.9983 16.5307 10.6955C17.2616 10.3928 17.8863 9.88008 18.3259 9.22228C18.7654 8.56449 19 7.79113 19 7.00001C19 5.93914 18.5786 4.92172 17.8284 4.17158C17.0783 3.42143 16.0609 3.00001 15 3.00001ZM6 3.00001C5.20887 3.00001 4.43551 3.2346 3.77772 3.67413C3.11992 4.11365 2.60723 4.73837 2.30448 5.46927C2.00173 6.20018 1.92252 7.00444 2.07686 7.78037C2.2312 8.55629 2.61216 9.26902 3.17157 9.82843C3.73098 10.3878 4.44371 10.7688 5.21964 10.9231C5.99556 11.0775 6.79982 10.9983 7.53073 10.6955C8.26163 10.3928 8.88635 9.88008 9.32587 9.22228C9.7654 8.56449 9.99999 7.79113 9.99999 7.00001C9.99999 5.93914 9.57857 4.92172 8.82842 4.17158C8.07828 3.42143 7.06086 3.00001 6 3.00001ZM6 18C5.99851 16.9496 6.20545 15.9094 6.60884 14.9395C7.01223 13.9697 7.60404 13.0895 8.34999 12.35C7.73953 12.1195 7.09252 12.001 6.44 12H5.56C4.08621 12.0026 2.67353 12.5893 1.63141 13.6314C0.589276 14.6735 0.00264358 16.0862 0 17.56V18C0 18.2652 0.105357 18.5196 0.292893 18.7071C0.480429 18.8946 0.734783 19 0.999999 19H6.18C6.06357 18.6793 6.0027 18.3411 6 18Z" fill="#5C93FE"/>
</svg>
