<svg width="22" height="22" viewBox="0 0 22 22" fill="none" xmlns="http://www.w3.org/2000/svg">
<g clip-path="url(#clip0_33_810)">
<path fill-rule="evenodd" clip-rule="evenodd" d="M21.5402 14.0109L17.2489 20.0107C16.624 20.8856 15.4054 21.271 13.8534 21.1461C11.6971 20.9585 8.83268 19.8127 6.09335 17.8443C5.20007 17.2101 4.35617 16.5092 3.56891 15.7474C2.11735 14.3376 1.05046 12.8709 0.479128 11.5632C-0.145761 10.1258 -0.166427 8.85517 0.458461 7.98028L4.75999 1.9805C5.38511 1.10561 6.59333 0.720281 8.15577 0.84517C10.312 1.02228 13.166 2.1785 15.9156 4.13673C18.6551 6.10539 20.6656 8.44895 21.5196 10.4281C21.5933 10.5978 21.6587 10.7652 21.7156 10.9301C22.1402 12.1601 22.0913 13.2394 21.5402 14.0109H21.5402Z" fill="url(#paint0_linear_33_810)"/>
<path fill-rule="evenodd" clip-rule="evenodd" d="M20.8529 10.7196C20.03 8.83428 18.1029 6.61561 15.4782 4.74072C12.8638 2.86583 10.1453 1.75139 8.09333 1.58472C6.84333 1.4805 5.85378 1.70983 5.354 2.40761L5.33289 2.44917C4.86422 3.14717 4.96845 4.13672 5.458 5.26161C6.28089 7.15739 8.20778 9.37583 10.8224 11.2507C13.4367 13.1256 16.1553 14.2403 18.2071 14.4069C19.4362 14.5005 20.4051 14.2819 20.9153 13.6256L20.9467 13.5736C21.4467 12.8861 21.3424 11.8654 20.8529 10.7196ZM17.0093 10.7614C16.7802 11.0841 16.3116 11.1781 15.7387 11.1258C14.7073 11.0425 13.3533 10.4801 12.0409 9.54272C10.7284 8.60517 9.75978 7.50095 9.35356 6.55317C9.12445 6.02206 9.062 5.55339 9.29111 5.23028C9.52045 4.90739 9.98911 4.81361 10.5722 4.85539C11.5929 4.94917 12.9576 5.50117 14.2596 6.43872C15.572 7.37606 16.5407 8.4905 16.9469 9.4385C17.1864 9.96961 17.2489 10.4383 17.0093 10.7614Z" fill="white"/>
</g>
<defs>
<linearGradient id="paint0_linear_33_810" x1="7.46835" y1="0.57628" x2="14.531" y2="21.417" gradientUnits="userSpaceOnUse">
<stop stop-color="#27B0E6"/>
<stop offset="0.107" stop-color="#49A1DB"/>
<stop offset="0.288" stop-color="#7D8ACA"/>
<stop offset="0.445" stop-color="#A279BD"/>
<stop offset="0.572" stop-color="#BA6FB6"/>
<stop offset="0.651" stop-color="#C26BB3"/>
<stop offset="0.678" stop-color="#D563AD"/>
<stop offset="0.715" stop-color="#E65BA7"/>
<stop offset="0.76" stop-color="#F156A3"/>
<stop offset="0.824" stop-color="#F853A1"/>
<stop offset="1" stop-color="#FA52A0"/>
</linearGradient>
<clipPath id="clip0_33_810">
<rect width="22" height="22" fill="white"/>
</clipPath>
</defs>
</svg>
