<svg width="22" height="22" viewBox="0 0 22 22" fill="none" xmlns="http://www.w3.org/2000/svg">
<path d="M21.2 6.25964C20.9623 5.37605 20.2657 4.67953 19.3822 4.4416C17.7683 4 11.3122 4 11.3122 4C11.3122 4 4.85649 4 3.24252 4.42486C2.37605 4.66253 1.66241 5.37617 1.42474 6.25964C1 7.87348 1 11.2204 1 11.2204C1 11.2204 1 14.5842 1.42474 16.1811C1.66266 17.0646 2.35905 17.7611 3.24264 17.999C4.87348 18.4408 11.3125 18.4408 11.3125 18.4408C11.3125 18.4408 17.7683 18.4408 19.3822 18.0159C20.2658 17.7781 20.9623 17.0816 21.2003 16.1981C21.6249 14.5842 21.6249 11.2374 21.6249 11.2374C21.6249 11.2374 21.6419 7.87348 21.2 6.25964ZM9.2568 14.3124V8.1284L14.6253 11.2204L9.2568 14.3124Z" fill="#5C93FE"/>
</svg>
